<svg width="97" height="30" viewBox="0 0 97 30" fill="none" xmlns="http://www.w3.org/2000/svg">
<g clip-path="url(#clip0)">
<path d="M36.7819 25.4787C34.5745 25.4787 32.367 25.0266 30.5851 24.2287C28.5372 23.2979 27.1276 21.9415 26.5159 20.2926C25.984 18.8564 26.5957 17.2606 27.8457 16.7287C28.5106 16.4362 29.0957 16.3032 29.601 16.3032C30.6383 16.3032 31.2234 16.8883 31.7287 17.4202C32.0213 17.7394 32.3138 18.0319 32.6064 18.2713C33.8564 19.2819 35.2925 19.8138 36.8351 19.8138C38.2979 19.8138 40.2659 19.6543 40.2659 18.1915C40.2659 17.0213 39.4149 16.6489 37.633 16.0904L34.7074 15.0798C27.0745 12.633 27.0745 9.25532 27.0745 6.99468V6.91489C27.0745 3.24468 31.7287 0 37.0213 0C41.3564 0 44.7074 1.46277 46.25 4.01596C46.7819 4.84043 46.9681 5.6117 46.8085 6.25C46.6223 6.94149 46.0638 7.39362 45.6117 7.63298C44.7074 8.1117 43.9893 8.32447 43.4042 8.32447C42.5266 8.32447 41.9149 7.87234 41.0372 7.23404L40.7979 7.04787C39.7074 6.2766 38.7234 5.93085 37.633 5.93085C35.8245 5.93085 34.7074 6.54255 34.7074 7.5C34.7074 8.43085 35.6117 8.90957 36.9947 9.3351L40.9308 10.6117C43.617 11.4628 45.5851 12.7128 46.7553 14.4149C47.7659 15.8511 47.8989 17.234 47.8989 17.8989C47.8989 20.266 46.6755 22.234 44.3883 23.617C42.3936 24.7872 39.6276 25.4787 36.7819 25.4787Z" fill="#C72840"/>
<path d="M66.649 28.5638C66.5958 27.4202 67.2075 26.9947 67.7926 26.7819C68.7766 26.4096 69.5745 25.7447 69.9469 24.867C70.1862 24.3351 70.2926 23.75 70.4522 23.0585C70.5054 22.7925 70.532 22.5266 70.5852 22.234C70.6118 22.0744 70.6383 21.8883 70.6383 21.7287C70.6649 21.5691 70.6915 21.4096 70.6915 21.25C70.7181 21.0106 70.7713 20.7713 70.7979 20.5319C70.8245 20.2925 70.8777 20.0798 70.9043 19.8404C70.9309 19.6808 70.9575 19.5213 70.9575 19.3617C70.9841 19.2021 71.0107 19.0425 71.0107 18.883C71.0373 18.6702 71.0639 18.484 71.1171 18.2713C71.1437 18.1383 71.1703 18.0053 71.1703 17.8723C71.1969 17.7925 71.1969 17.6861 71.1969 17.5798L71.2235 17.4202L71.3032 16.9149C71.3564 16.5425 71.4096 16.1702 71.4628 15.8244C71.4894 15.6117 71.516 15.3989 71.5426 15.1861C71.5692 14.9202 71.6224 14.6542 71.649 14.3883C71.7288 13.9096 71.782 13.4308 71.8618 12.9787C71.8618 12.8989 71.8618 12.8723 71.8618 12.8723C71.8618 12.8723 71.8352 12.8723 71.7554 12.8723C71.6756 12.8723 71.383 12.8723 71.1171 12.8723H70.7979C70.4522 12.8723 70.1862 12.7127 70.0532 12.4202C70.0266 12.3404 69.9735 12.2074 70.0001 12.0744C70.0532 11.6489 70.1064 11.2234 70.1862 10.7979C70.2926 10.3191 70.7713 10.0532 71.2235 10.0266C71.2766 10.0266 71.4362 10.0266 71.5958 10.0266C71.7554 10.0266 71.9415 10.0266 72.1011 10.0266H72.2607C72.2873 9.92019 72.2873 9.78721 72.3139 9.68083C72.3671 9.38828 72.3937 9.14892 72.4469 8.88296C72.6064 8.16487 72.8458 7.52657 73.2181 6.96806C73.6703 6.24998 74.282 5.69147 75.0532 5.29253C75.3724 5.13296 75.7713 4.94679 76.1969 4.8404C76.516 4.76062 76.8352 4.70743 77.2873 4.65423C77.7926 4.60104 78.2447 4.54785 78.6703 4.54785C78.7766 4.54785 78.8564 4.54785 78.9628 4.54785C79.3352 4.54785 79.6809 4.60104 80.0266 4.65423C80.399 4.70743 80.7713 5.05317 80.7447 5.53189C80.7181 5.82445 80.6649 6.117 80.6383 6.38296C80.6118 6.56913 80.5851 6.7553 80.532 6.94147L80.5054 7.07445C80.4522 7.367 80.1596 7.60636 79.8671 7.60636C79.8405 7.60636 79.7873 7.60636 79.7607 7.60636C79.6543 7.60636 79.5213 7.60636 79.4149 7.60636C79.3352 7.60636 79.2288 7.60636 79.149 7.60636C79.0426 7.60636 78.9362 7.60636 78.8564 7.60636C78.6969 7.60636 78.5373 7.60636 78.3777 7.60636C78.2447 7.60636 78.1383 7.60636 78.032 7.60636C77.766 7.63296 77.4734 7.68615 77.2075 7.81913C76.8352 8.0053 76.516 8.32445 76.3298 8.72338C76.1703 9.06913 76.0639 9.49466 76.0107 10.0266C76.5426 10.0266 77.0479 10.0266 77.5798 10.0266H81.0107V10.0532V10.0266H81.0373C81.3032 10.0266 81.5426 10.133 81.7288 10.3191C81.8883 10.5053 81.9681 10.7447 81.9681 11.0372C81.9681 11.1436 81.9681 11.25 81.9681 11.3564C81.9681 11.383 81.9681 11.383 81.9681 11.4096C81.9947 11.383 82.0213 11.3564 82.0479 11.3298C82.1543 11.2234 82.2873 11.117 82.3937 11.0372C82.7926 10.7181 83.2713 10.3457 83.8564 10.1596C84.6277 9.8936 85.4256 9.8404 85.9309 9.8404C86.3032 9.8404 86.5426 9.867 86.5692 9.867C86.9947 9.8936 87.3937 10.0266 87.7926 10.2393C88.2979 10.5053 88.6969 10.9042 88.9628 11.4361C88.9894 11.5159 89.0426 11.5957 89.0692 11.6755C89.0692 11.7021 89.0692 11.7021 89.0958 11.7287L89.1224 11.7021C89.1756 11.6489 89.2288 11.5957 89.282 11.5691C89.3617 11.4893 89.4415 11.4096 89.5479 11.3298C90.532 10.5053 91.4096 10.0266 92.3139 9.867C92.5798 9.81381 92.8458 9.78721 93.1383 9.78721C93.4043 9.78721 93.6969 9.81381 94.0426 9.8404C94.5479 9.8936 94.9734 10.0266 95.399 10.2393C95.8511 10.4787 96.1968 10.8244 96.4362 11.3032C96.6756 11.7819 96.7554 12.2872 96.8086 12.8723C96.8617 13.4042 96.8086 13.9361 96.7288 14.4415V14.5213C96.7022 14.8404 96.649 15.2127 96.5958 15.5851C96.5692 15.7713 96.5426 15.9308 96.516 16.117C96.4894 16.2766 96.4628 16.4096 96.4362 16.5691C96.4096 16.7553 96.383 16.9149 96.3564 17.101C96.3298 17.2606 96.3032 17.4202 96.3032 17.6064C96.2766 17.8457 96.2234 18.0585 96.1969 18.2979L96.1437 18.617L96.1171 18.75C96.0905 18.8564 96.0905 18.9627 96.0639 19.0691L96.0107 19.4149C95.9575 19.8404 95.8777 20.2659 95.8245 20.6915C95.7979 20.851 95.7713 21.0106 95.7713 21.1702C95.7447 21.3564 95.7181 21.5425 95.6915 21.7553C95.6649 21.9681 95.6117 22.2074 95.5851 22.4202C95.5585 22.633 95.5054 22.8723 95.4788 23.1117C95.4522 23.2713 95.4522 23.4042 95.4256 23.5638C95.399 23.75 95.3724 23.9627 95.3458 24.1489V24.2021C95.3192 24.4415 95.266 24.6808 95.1862 24.8936C95.0798 25.1861 94.8405 25.3723 94.5745 25.4521C94.4149 25.4787 94.2554 25.5053 94.0426 25.5053C93.8032 25.5053 93.5373 25.5053 93.2979 25.5053C93.1117 25.5053 92.9256 25.5053 92.7128 25.5053H92.4203C92.0479 25.5053 91.782 25.3457 91.649 25.0532C91.5958 24.9202 91.5692 24.7872 91.5692 24.6808C91.5958 24.4415 91.6224 24.2021 91.6756 23.9893C91.7022 23.9096 91.7022 23.8032 91.7288 23.7234L91.7554 23.617C91.782 23.484 91.782 23.351 91.8086 23.2181C91.8352 23.0319 91.8617 22.8457 91.8883 22.6861C91.9149 22.3936 91.9681 22.101 91.9947 21.8085C92.0479 21.4361 92.1011 21.0638 92.1543 20.6915L92.2341 20.1596L92.3139 19.4947L92.4469 18.5372L92.5 18.1649C92.5266 17.8723 92.5798 17.5798 92.633 17.2872C92.6596 17.1276 92.6862 16.9415 92.7128 16.7819C92.766 16.5159 92.7926 16.2234 92.8458 15.9308V15.8776C92.899 15.3457 92.9788 14.7872 93.0054 14.2553C93.032 13.883 92.9522 13.5904 92.8192 13.351C92.6596 13.0851 92.4203 13.0053 92.2075 12.9521C92.0479 12.9255 91.8883 12.8989 91.7288 12.8989C91.4894 12.8989 91.2766 12.9521 91.0373 13.0319C90.9841 13.0585 90.9043 13.0851 90.8511 13.1117C90.399 13.2978 89.9734 13.617 89.5479 14.0691C89.4947 14.1223 89.4681 14.1489 89.4415 14.2021C89.3617 14.2819 89.3351 14.3883 89.3085 14.4947L89.149 15.8776L88.8564 17.9255C88.8298 18.1117 88.8032 18.2713 88.7766 18.4574C88.75 18.617 88.7234 18.7766 88.7234 18.9627C88.6969 19.1755 88.6703 19.4149 88.6171 19.6276C88.5905 19.734 88.5905 19.867 88.5639 19.9734C88.5373 20.133 88.5107 20.2925 88.5107 20.4255L88.4309 20.9042C88.3777 21.3032 88.3245 21.6755 88.2713 22.0744C88.2447 22.3138 88.2181 22.5266 88.1915 22.7659C88.1649 23.0319 88.1383 23.2978 88.0852 23.5638C88.0852 23.6436 88.0586 23.7234 88.0586 23.8032C88.032 24.0957 87.9788 24.3883 87.9256 24.6542C87.7926 25.2127 87.3937 25.5585 86.8617 25.5585C86.5958 25.5585 86.3564 25.5585 86.0905 25.5585C85.8245 25.5585 85.532 25.5585 85.266 25.5585H85.0798C84.6543 25.5585 84.3883 25.3723 84.2554 25C84.2022 24.8404 84.2288 24.6542 84.2288 24.4947V24.4149C84.2288 24.2819 84.2554 24.1755 84.282 24.0691C84.3086 23.9893 84.3086 23.9096 84.3086 23.8298C84.3352 23.5904 84.3617 23.351 84.4149 23.1117C84.4415 22.8723 84.4681 22.633 84.5213 22.3936C84.5745 22.0478 84.6277 21.6755 84.6809 21.3298L84.7607 20.7978L85 19.1755L85.0798 18.6702C85.133 18.2978 85.1862 17.8989 85.2394 17.5266C85.266 17.367 85.2926 17.1808 85.3192 17.0213C85.3724 16.7553 85.399 16.4893 85.4256 16.2234C85.4522 16.0638 85.4788 15.9042 85.5054 15.7447C85.5851 15.1861 85.6649 14.5744 85.6117 13.9893C85.5586 13.5106 85.399 13.2181 85.0532 13.0851C84.8139 12.9787 84.6011 12.9521 84.3617 12.9521C84.282 12.9521 84.1756 12.9521 84.0958 12.9787C83.1383 13.1383 82.4735 13.7234 81.9681 14.2819C81.8883 14.3617 81.8618 14.4415 81.8352 14.5478C81.8086 14.6808 81.8086 14.7872 81.782 14.9202C81.7554 15.0798 81.7288 15.2659 81.7288 15.4255C81.7022 15.6649 81.649 15.8776 81.6224 16.117L81.5692 16.4627L81.5426 16.5691C81.516 16.6755 81.516 16.8085 81.4894 16.9149C81.4628 17.101 81.4362 17.2872 81.4096 17.4468C81.383 17.7393 81.3298 18.0053 81.3032 18.2979C81.25 18.6702 81.1969 19.0425 81.1437 19.4149L81.0639 19.9202L80.9309 20.9574L80.8511 21.5691L80.7713 22.101C80.7181 22.4468 80.6649 22.8191 80.6118 23.1649C80.5852 23.2978 80.5852 23.4308 80.5586 23.5638C80.5054 23.9361 80.4522 24.3351 80.399 24.7074C80.3458 25.0798 80.0266 25.3989 79.6543 25.5053C79.5213 25.5319 79.3617 25.5585 79.2288 25.5585C78.9096 25.5585 78.6171 25.5585 78.2979 25.5585C78.032 25.5585 77.766 25.5585 77.5 25.5585C77.1011 25.5585 76.8352 25.3723 76.7554 25.0532C76.7022 24.867 76.7022 24.6276 76.7288 24.4415V24.4149C76.7288 24.2819 76.7554 24.1489 76.782 24.0159C76.8086 23.9361 76.8086 23.8564 76.8086 23.8032C76.8883 23.2713 76.9681 22.7659 77.0213 22.234C77.0479 22.0744 77.0745 21.9149 77.0745 21.7287C77.1011 21.5425 77.1277 21.3564 77.1543 21.1702C77.1809 21.0106 77.2075 20.8244 77.2341 20.6649C77.2607 20.5053 77.2873 20.3457 77.3139 20.2127C77.3405 20.0266 77.3671 19.867 77.3937 19.6808C77.4203 19.5213 77.4469 19.3617 77.4469 19.1755C77.4735 18.9627 77.5 18.75 77.5532 18.5372C77.5798 18.4042 77.6064 18.2713 77.6064 18.1383C77.633 18.0053 77.633 17.8457 77.6596 17.7127V17.6596C77.6862 17.5 77.7128 17.3404 77.7128 17.1808C77.766 16.8617 77.7926 16.5425 77.8458 16.2234C77.8724 15.9574 77.9256 15.7181 77.9522 15.4521C77.9788 15.2127 78.032 15 78.0586 14.7606C78.0852 14.601 78.1118 14.4149 78.1118 14.2553C78.1383 14.0957 78.1383 13.9361 78.1649 13.7766C78.2181 13.484 78.2447 13.1915 78.2979 12.8989H75.7713C75.6915 12.8989 75.6383 12.9521 75.6383 13.0319C75.6117 13.2979 75.5852 13.5372 75.532 13.8032C75.5054 13.9096 75.5054 13.9893 75.4788 14.0957C75.4788 14.1489 75.4522 14.2021 75.4522 14.2819C75.4256 14.3883 75.4256 14.4681 75.399 14.5744C75.3724 14.7606 75.3458 14.9468 75.3192 15.1064C75.2926 15.3989 75.2394 15.6915 75.2128 15.984C75.1862 16.2234 75.133 16.4627 75.1064 16.7021C75.0798 16.9149 75.0266 17.1542 75 17.367C74.9735 17.5266 74.9469 17.7127 74.9203 17.8723C74.8937 18.0319 74.8671 18.2181 74.8671 18.3776C74.8405 18.5638 74.8139 18.7234 74.7873 18.9096C74.7607 19.0691 74.7341 19.2287 74.7075 19.3883C74.6809 19.5479 74.6543 19.7074 74.6543 19.867C74.6277 20.0266 74.6277 20.1861 74.6011 20.3191C74.5745 20.5319 74.5479 20.7447 74.4947 20.9308C74.4681 21.0638 74.4415 21.1968 74.4415 21.3298C74.4149 21.4893 74.3884 21.6489 74.3884 21.7819C74.3618 21.9415 74.3352 22.101 74.3352 22.2606C74.3086 22.5798 74.2554 22.8989 74.2022 23.2181C73.2979 29.4681 70.1862 29.8138 68.8032 30C68.4043 30.0532 67.9788 30.0266 67.6064 29.8404C67.1277 29.6276 66.7022 29.2553 66.649 28.5638Z" fill="#C72840"/>
<path d="M21.4096 0.265991C17.7926 0.265991 17.7926 2.76599 17.7926 3.9362V4.44152L17.6064 3.9894C17.6064 3.9894 17.2872 3.19152 16.2766 2.42025C15.3457 1.70216 13.6436 0.824502 10.7713 0.824502C4.73404 0.824502 0 6.11705 0 12.899C0 19.9202 4.44149 25.2128 10.3457 25.2128C10.4787 25.2128 10.6117 25.2128 10.7447 25.2128C12.3138 25.1596 13.7766 24.7607 15.0532 24.0958C16.117 23.5373 16.9681 22.7394 17.5798 21.7554L17.766 21.4362V22.0745C17.766 23.5373 18.1649 25.4788 21.383 25.4788C22.9255 25.4788 23.9894 24.9202 24.5479 23.8032C25 22.899 25 21.8351 25 21.3298V5.37237C25.0532 3.3245 25.0532 0.265991 21.4096 0.265991ZM11.9947 18.6171C9.17553 18.6171 7.57979 16.4096 7.57979 13.2979C7.57979 9.5479 9.17553 7.97876 11.9947 7.97876C14.5213 7.97876 16.1436 9.38833 16.1436 13.2979C16.1436 16.4894 14.5213 18.6171 11.9947 18.6171Z" fill="#C72840"/>
<path d="M52.899 25.4787C49.3884 25.4787 49.3352 22.6862 49.282 20.8245V20.6383V4.94681V4.76064C49.3352 2.87234 49.415 0 52.899 0C54.1756 0 55.1064 0.319149 55.6916 0.930851C56.5692 1.83511 56.5426 3.19149 56.516 4.09574C56.516 4.22872 56.516 4.33511 56.516 4.44149V7.63298L61.0905 2.44681C61.383 2.10106 61.6756 1.83511 61.9416 1.59574C62.7926 0.851064 63.5639 0.505319 64.3352 0.505319C64.9469 0.505319 65.5586 0.718085 66.1969 1.14362C66.4362 1.30319 66.6756 1.48936 66.8618 1.70213C68.4309 3.32447 67.7926 5.07979 66.7554 6.11702L61.782 11.4894L67.9788 20.3723C69.016 21.7553 68.7767 23.6968 67.3937 24.8138C66.8086 25.2926 66.0905 25.5319 65.3192 25.5319C65.266 25.5319 65.2394 25.5319 65.1862 25.5319C64.0958 25.4787 63.0852 24.8936 62.4469 23.9628L56.5426 15.266V20.8245C56.516 23.0585 56.2501 25.4787 52.899 25.4787Z" fill="#C72840"/>
</g>
<defs>
<clipPath id="clip0">
<rect width="97" height="30" fill="white"/>
</clipPath>
</defs>
</svg>
