<svg width="60" height="30" viewBox="0 0 60 30" fill="none" xmlns="http://www.w3.org/2000/svg">
<g clip-path="url(#clip0)">
<g opacity="0.4">
<path opacity="0.4" d="M29.7223 29.46C29.3205 29.4747 28.92 29.4063 28.5457 29.2592C28.1715 29.1121 27.8316 28.8894 27.5473 28.605C27.2708 28.31 27.0577 27.9615 26.921 27.581C26.7842 27.2005 26.7268 26.796 26.7523 26.3925V12.0225C26.7523 11.085 27.0223 10.365 27.5773 9.81003C27.8616 9.52566 28.2015 9.30298 28.5757 9.15587C28.95 9.00876 29.3505 8.94039 29.7523 8.95502C31.7998 8.95502 32.9248 10.0425 32.9248 12.015V26.4C32.9248 27.2625 32.6023 28.0275 32.0023 28.62C31.3847 29.1935 30.5646 29.4983 29.7223 29.4675V29.46ZM22.5223 29.46C22.1217 29.4736 21.7226 29.4047 21.3498 29.2577C20.9769 29.1106 20.6383 28.8884 20.3548 28.605C20.0842 28.3069 19.8763 27.9574 19.7436 27.5773C19.6109 27.1972 19.556 26.7943 19.5823 26.3925V4.23753C19.5823 3.30003 19.8523 2.57253 20.3998 2.02503C20.6841 1.74067 21.024 1.51798 21.3982 1.37087C21.7725 1.22376 22.173 1.15539 22.5748 1.17003C24.5998 1.17003 25.7548 2.28753 25.7548 4.23753V26.3925C25.7548 27.2475 25.4323 28.0125 24.8173 28.6125C24.1948 29.1829 23.3738 29.4871 22.5298 29.46H22.5223ZM29.6998 8.10753C28.6948 8.10753 27.8248 7.74003 27.1048 7.02003C26.7574 6.68511 26.4819 6.28299 26.2949 5.83814C26.1079 5.3933 26.0135 4.91505 26.0173 4.43253C26.0173 3.42753 26.3848 2.55753 27.1048 1.83753C27.4409 1.48957 27.8443 1.2137 28.2904 1.02673C28.7366 0.839765 29.2161 0.745616 29.6998 0.750026C30.6973 0.750026 31.5748 1.11753 32.2873 1.83753C32.6347 2.17244 32.9103 2.57456 33.0972 3.01941C33.2842 3.46425 33.3787 3.9425 33.3748 4.42503C33.3748 5.42253 33.0148 6.30003 32.2948 7.02003C31.9584 7.36698 31.5548 7.64169 31.1086 7.82738C30.6624 8.01307 30.1831 8.10584 29.6998 8.10003V8.10753Z" fill="url(#paint0_linear)"/>
<path opacity="0.4" d="M29.6999 1.24496C30.5624 1.24496 31.3124 1.55996 31.9424 2.18246C32.2445 2.47326 32.4836 2.82304 32.6449 3.21009C32.8061 3.59714 32.8861 4.0132 32.8799 4.43246C32.8799 5.29496 32.5649 6.04496 31.9424 6.66746C31.3124 7.29746 30.5624 7.61246 29.6924 7.61246C28.8224 7.61246 28.0799 7.29746 27.4574 6.66746C27.1549 6.37818 26.9149 6.02991 26.7524 5.64419C26.5899 5.25847 26.5082 4.84351 26.5124 4.42496C26.5124 3.56246 26.8274 2.81246 27.4574 2.18246C27.7473 1.88131 28.0959 1.64275 28.4816 1.48151C28.8673 1.32027 29.2819 1.23976 29.6999 1.24496ZM22.5749 1.67246C24.3074 1.67246 25.2599 2.52746 25.2599 4.23746V26.3925C25.2599 27.165 24.9599 27.78 24.4649 28.2525C23.9849 28.725 23.2949 28.965 22.5299 28.965C21.7649 28.965 21.1799 28.725 20.7074 28.2525C20.2349 27.78 20.0849 27.165 20.0849 26.3925V4.23746C20.0849 3.47246 20.2799 2.84996 20.7524 2.37746C21.2249 1.90496 21.8024 1.67246 22.5674 1.67246H22.5749ZM29.7599 9.44996C31.4924 9.44996 32.4224 10.3125 32.4224 12.0225V26.3925C32.4224 27.165 32.1374 27.78 31.6499 28.2525C31.1699 28.725 30.4949 28.965 29.7299 28.965C28.9649 28.965 28.3724 28.725 27.8999 28.2525C27.4274 27.78 27.2474 27.165 27.2474 26.3925V12.0225C27.2474 11.25 27.4574 10.635 27.9299 10.1625C28.1688 9.92328 28.4549 9.73642 28.77 9.61376C29.085 9.4911 29.4221 9.43532 29.7599 9.44996ZM29.6999 0.254962C29.1509 0.249485 28.6065 0.355698 28.0998 0.567144C27.5931 0.77859 27.1347 1.09086 26.7524 1.48496C26.4074 1.82246 26.1374 2.18996 25.9424 2.58746C25.4174 1.36496 24.2249 0.674962 22.5674 0.674962C21.5474 0.674962 20.7224 1.00496 20.0474 1.67246C19.4099 2.30996 19.0874 3.17246 19.0874 4.23746V26.4C19.0874 27.0975 19.1849 28.1325 20.0099 28.9575C20.6849 29.6325 21.5099 29.9625 22.5299 29.9625C23.5799 29.9625 24.5099 29.6025 25.1624 28.965C25.5084 28.6337 25.7833 28.2355 25.9703 27.7945C26.1573 27.3535 26.2524 26.879 26.2499 26.4V6.78746C26.3999 6.98996 26.5649 7.19246 26.7524 7.37996C27.3389 7.98415 28.0992 8.39049 28.9274 8.54246C28.1349 8.69909 27.4264 9.13843 26.9338 9.77866C26.4413 10.4189 26.1982 11.2163 26.2499 12.0225V26.3925C26.2499 27.4875 26.5574 28.3275 27.1949 28.9575C27.527 29.2884 27.923 29.5483 28.3589 29.7211C28.7947 29.8938 29.2612 29.976 29.7299 29.9625C30.7799 29.9625 31.6799 29.6175 32.3474 28.965C32.6914 28.633 32.964 28.2342 33.1484 27.7932C33.3329 27.3521 33.4252 26.878 33.4199 26.4V12.015C33.4199 10.065 32.3699 8.80496 30.5774 8.51996C31.3658 8.35082 32.0862 7.95145 32.6474 7.37246C33.0422 6.99073 33.3549 6.53241 33.5664 6.02559C33.7779 5.51877 33.8838 4.97411 33.8774 4.42496C33.8774 3.29246 33.4649 2.29496 32.6474 1.48496C32.2651 1.09086 31.8067 0.77859 31.3 0.567144C30.7933 0.355698 30.2489 0.249485 29.6999 0.254962Z" fill="#030202"/>
</g>
<g opacity="0.4">
<path opacity="0.4" d="M34.2376 29.505C33.8341 29.5196 33.432 29.452 33.0555 29.3063C32.679 29.1606 32.3361 28.9399 32.0476 28.6575C31.7648 28.3693 31.5439 28.0264 31.3982 27.6498C31.2525 27.2733 31.185 26.871 31.2001 26.4675V17.8725C31.2001 15.4425 32.0476 13.3725 33.7126 11.7225C34.5187 10.9126 35.4806 10.2745 36.5402 9.8465C37.5998 9.41854 38.735 9.20968 39.8776 9.23253C40.2786 9.22226 40.6776 9.29356 41.0502 9.4421C41.4229 9.59065 41.7615 9.81333 42.0456 10.0967C42.3296 10.38 42.5531 10.7181 42.7026 11.0904C42.852 11.4627 42.9243 11.8614 42.9151 12.2625C42.9151 13.545 42.3901 15.1125 39.8401 15.3375C39.0901 15.405 38.4901 15.6675 38.0101 16.1325C37.5376 16.5825 37.3126 17.1525 37.3126 17.8725V26.4675C37.3126 27.3675 37.0126 28.1025 36.4351 28.665C36.1425 28.9434 35.7977 29.161 35.4205 29.3052C35.0433 29.4494 34.6412 29.5173 34.2376 29.505Z" fill="url(#paint1_linear)"/>
<path opacity="0.4" d="M39.8775 9.72755C40.2133 9.71715 40.5475 9.7756 40.8598 9.89932C41.1721 10.023 41.4557 10.2094 41.6932 10.4469C41.9307 10.6844 42.117 10.968 42.2408 11.2803C42.3645 11.5925 42.4229 11.9268 42.4125 12.2625C42.4125 13.8375 41.5425 14.685 39.8025 14.8425C39.0037 14.8952 38.2481 15.2239 37.665 15.7725C37.3835 16.0432 37.1619 16.37 37.0146 16.7318C36.8673 17.0935 36.7976 17.4822 36.81 17.8725V26.4675C36.81 27.225 36.57 27.84 36.09 28.305C35.61 28.77 34.995 29.01 34.23 29.01C33.465 29.01 32.865 28.77 32.4 28.305C32.1631 28.0633 31.9783 27.7754 31.857 27.4594C31.7358 27.1433 31.6806 26.8058 31.695 26.4675V17.8725C31.695 15.57 32.4825 13.6425 34.065 12.075C34.8242 11.3102 35.7309 10.7078 36.7301 10.3042C37.7293 9.90067 38.8002 9.70447 39.8775 9.72755ZM39.8775 8.73005C37.32 8.73005 35.13 9.62255 33.36 11.37C32.4968 12.2151 31.8159 13.228 31.3592 14.3464C30.9026 15.4647 30.6799 16.6648 30.705 17.8725V26.4675C30.705 27.495 31.035 28.35 31.695 29.0175C32.0304 29.3447 32.4286 29.6004 32.8656 29.7693C33.3026 29.9382 33.7693 30.0167 34.2375 30C35.2575 30 36.1125 29.67 36.7875 29.025C37.1245 28.6936 37.3892 28.2958 37.5647 27.8569C37.7403 27.418 37.823 26.9475 37.8075 26.475V17.865C37.8075 17.2725 37.98 16.8375 38.3475 16.4775C38.7525 16.095 39.255 15.8775 39.8925 15.825C42.1275 15.63 43.4175 14.325 43.4175 12.255C43.4289 11.7878 43.345 11.323 43.171 10.8892C42.9969 10.4554 42.7363 10.0616 42.4051 9.73176C42.0739 9.40194 41.6789 9.14303 41.2444 8.97081C40.8098 8.79859 40.3448 8.71667 39.8775 8.73005Z" fill="#030202"/>
</g>
<g opacity="0.4">
<path opacity="0.4" d="M6.90017 29.4C6.49317 29.4163 6.0871 29.3496 5.70672 29.2039C5.32633 29.0582 4.97961 28.8366 4.68767 28.5525C4.40319 28.2621 4.1807 27.9168 4.03373 27.5378C3.88675 27.1588 3.81835 26.7538 3.83267 26.3475V9.85499C3.83267 7.37999 4.68017 5.27999 6.35267 3.61499C7.16718 2.79327 8.14051 2.14605 9.21333 1.7128C10.2861 1.27954 11.436 1.06934 12.5927 1.09499C15.0377 1.09499 17.1302 1.94999 18.8027 3.63749C19.6205 4.4514 20.2648 5.42267 20.6966 6.49261C21.1285 7.56254 21.3389 8.70893 21.3152 9.86249V10.125C21.3152 11.025 21.0302 11.775 20.4677 12.345C20.1796 12.6363 19.8342 12.8647 19.4534 13.0157C19.0726 13.1667 18.6646 13.2372 18.2552 13.2225C17.8462 13.2319 17.4396 13.1576 17.0604 13.0041C16.6812 12.8506 16.3374 12.6212 16.0502 12.33C15.7579 12.0431 15.5274 11.6995 15.3726 11.3204C15.2179 10.9412 15.1422 10.5344 15.1502 10.125V9.85499C15.1502 9.11999 14.9177 8.51249 14.4227 8.00999C13.9277 7.49999 13.3277 7.25999 12.5927 7.25999C11.8577 7.25999 11.2577 7.49999 10.7477 8.00999C10.2377 8.51999 9.99767 9.11999 9.99767 9.85499V14.8275H18.4127C19.3127 14.8275 20.0552 15.1275 20.6177 15.705C20.9014 16.0006 21.1232 16.3499 21.27 16.7324C21.4169 17.115 21.4858 17.523 21.4727 17.9325C21.487 18.3388 21.4186 18.7437 21.2716 19.1228C21.1246 19.5018 20.9022 19.8471 20.6177 20.1375C20.3272 20.422 19.982 20.6445 19.603 20.7914C19.2239 20.9384 18.819 21.0068 18.4127 20.9925H9.99017V26.3475C9.99017 27.2475 9.69017 27.9975 9.11267 28.56C8.81765 28.8392 8.47022 29.0572 8.09047 29.2014C7.71072 29.3455 7.30616 29.413 6.90017 29.4Z" fill="url(#paint2_linear)"/>
<path opacity="0.4" d="M12.6001 1.59C14.9176 1.59 16.8676 2.3925 18.4501 3.99C19.2219 4.75603 19.8299 5.67092 20.2374 6.67913C20.6448 7.68734 20.843 8.76783 20.8201 9.855V10.125C20.8201 10.89 20.5801 11.5125 20.1151 12C19.8726 12.2438 19.582 12.4344 19.2617 12.5597C18.9415 12.685 18.5986 12.7421 18.2551 12.7275C17.5126 12.7275 16.9051 12.48 16.4026 11.9775C15.9001 11.4825 15.6526 10.86 15.6526 10.125V9.855C15.6617 9.44891 15.589 9.04515 15.4389 8.66771C15.2888 8.29027 15.0643 7.94686 14.7789 7.6579C14.4934 7.36894 14.1528 7.14032 13.7772 6.98564C13.4016 6.83096 12.9988 6.75338 12.5926 6.7575C12.1843 6.75007 11.7789 6.82606 11.401 6.98082C11.0231 7.13557 10.6808 7.36583 10.3951 7.6575C10.1034 7.94326 9.87316 8.28555 9.7184 8.66341C9.56365 9.04127 9.48766 9.44675 9.49509 9.855V15.33H18.4126C18.7544 15.3155 19.0954 15.372 19.4143 15.4959C19.7331 15.6198 20.0228 15.8085 20.2651 16.05C20.7376 16.5375 20.9701 17.16 20.9701 17.925C20.9701 18.6975 20.7376 19.3125 20.2651 19.785C19.7926 20.2575 19.1776 20.49 18.4126 20.49H9.49509V26.34C9.49509 27.1125 9.25509 27.7275 8.76759 28.2C8.28009 28.6725 7.65759 28.905 6.89259 28.905C6.12759 28.905 5.51259 28.6725 5.04009 28.2C4.80139 27.956 4.61506 27.6659 4.49254 27.3473C4.37001 27.0288 4.31388 26.6885 4.32759 26.3475V9.855C4.32759 7.5075 5.12259 5.55 6.70509 3.9675C7.47231 3.1905 8.39044 2.57873 9.40295 2.16985C10.4155 1.76098 11.501 1.56364 12.5926 1.59H12.6001ZM12.5926 0.600001C11.3705 0.572839 10.1557 0.794909 9.02228 1.25267C7.88885 1.71042 6.86054 2.39427 6.00009 3.2625C5.13228 4.12447 4.44928 5.15427 3.9928 6.28904C3.53631 7.4238 3.31592 8.63971 3.34509 9.8625V26.3475C3.34509 27.3825 3.67509 28.2375 4.34259 28.8975C4.67834 29.2298 5.07825 29.4903 5.51794 29.6631C5.95763 29.8359 6.4279 29.9174 6.90009 29.9025C7.37524 29.9234 7.84958 29.8459 8.29334 29.6748C8.7371 29.5037 9.14068 29.2426 9.47875 28.9081C9.81681 28.5736 10.0821 28.1727 10.2578 27.7308C10.4336 27.2889 10.5161 26.8153 10.5001 26.34V21.4875H18.4201C19.4551 21.4875 20.3101 21.15 20.9701 20.49C21.3037 20.1536 21.565 19.7525 21.7378 19.3114C21.9107 18.8703 21.9914 18.3985 21.9751 17.925C21.996 17.4505 21.9187 16.9768 21.748 16.5336C21.5773 16.0903 21.317 15.6871 20.9832 15.3492C20.6495 15.0112 20.2496 14.7458 19.8085 14.5696C19.3675 14.3934 18.8948 14.3101 18.4201 14.325H10.4926V9.855C10.4926 9.255 10.6876 8.775 11.0926 8.355C11.287 8.15592 11.5208 7.9997 11.7791 7.89637C12.0375 7.79304 12.3145 7.74489 12.5926 7.755C13.1926 7.755 13.6651 7.9425 14.0626 8.355C14.4676 8.7675 14.6626 9.2475 14.6626 9.855V10.125C14.6626 11.13 15.0076 12 15.6976 12.6825C16.0313 13.0195 16.4302 13.2851 16.8699 13.463C17.3096 13.641 17.7809 13.7276 18.2551 13.7175C18.731 13.7357 19.2055 13.6548 19.6485 13.4799C20.0915 13.3049 20.4933 13.0397 20.8283 12.7012C21.1633 12.3626 21.4242 11.9581 21.5945 11.5133C21.7649 11.0686 21.8408 10.5932 21.8176 10.1175V9.855C21.8176 7.275 20.9176 5.055 19.1551 3.285C18.3027 2.41285 17.2806 1.72463 16.1519 1.26284C15.0232 0.801037 13.8119 0.575451 12.5926 0.600001Z" fill="#030202"/>
</g>
<g opacity="0.4">
<path opacity="0.4" d="M47.5348 29.3625C45.0898 29.3625 43.0123 28.5226 41.3623 26.8726C40.5497 26.0668 39.9098 25.1039 39.4817 24.0427C39.0536 22.9814 38.8463 21.8441 38.8723 20.7001V7.68755C38.8723 6.79505 39.1573 6.06005 39.7123 5.48255C40.2748 4.90505 41.0098 4.61255 41.9023 4.61255C42.7948 4.61255 43.5373 4.91255 44.1073 5.48255C44.3935 5.77209 44.6176 6.11698 44.7659 6.49612C44.9142 6.87526 44.9836 7.28067 44.9698 7.68755V9.18755H53.1373C54.0223 9.18755 54.7573 9.47255 55.3198 10.035C55.6021 10.3236 55.8229 10.6665 55.9686 11.043C56.1143 11.4195 56.1819 11.8216 56.1673 12.225C56.1673 14.205 55.0873 15.2925 53.1373 15.2925H44.9698V20.6925C44.9698 21.42 45.2173 22.0201 45.7198 22.515C46.2148 23.0175 46.8148 23.265 47.5423 23.265C47.8785 23.2692 48.2122 23.2054 48.5232 23.0775C48.8342 22.9496 49.1161 22.7602 49.3522 22.5207C49.5882 22.2812 49.7734 21.9964 49.8967 21.6836C50.02 21.3707 50.0789 21.0362 50.0698 20.7001V20.355C50.0698 19.485 50.3698 18.7575 50.9548 18.18C51.2422 17.9 51.5826 17.6801 51.9561 17.5332C52.3296 17.3864 52.7286 17.3156 53.1298 17.325C53.5308 17.3148 53.9298 17.3861 54.3025 17.5346C54.6752 17.6832 55.0138 17.9059 55.2978 18.1892C55.5818 18.4725 55.8054 18.8106 55.9548 19.1829C56.1043 19.5552 56.1766 19.954 56.1673 20.355V20.6925C56.1673 23.115 55.3273 25.185 53.6773 26.85C52.8808 27.666 51.9254 28.3099 50.8702 28.7421C49.815 29.1742 48.6823 29.3854 47.5423 29.3625H47.5348Z" fill="url(#paint3_linear)"/>
<path opacity="0.4" d="M41.9024 5.11506C42.6524 5.11506 43.2749 5.35506 43.7549 5.83506C44.2349 6.30756 44.4749 6.93006 44.4749 7.68756V9.69006H53.1374C53.8874 9.69006 54.5024 9.92256 54.9674 10.3876C55.4399 10.8601 55.6724 11.4676 55.6724 12.2251C55.6724 13.9426 54.8249 14.7976 53.1374 14.7976H44.4749V20.6926C44.4749 21.5551 44.7749 22.2751 45.3674 22.8676C45.6496 23.1572 45.9882 23.3859 46.3623 23.5394C46.7364 23.6929 47.1381 23.768 47.5424 23.7601C47.944 23.7632 48.3421 23.6856 48.7132 23.532C49.0843 23.3784 49.4207 23.1518 49.7026 22.8657C49.9845 22.5797 50.206 22.2399 50.3542 21.8666C50.5023 21.4933 50.5739 21.0941 50.5649 20.6926V20.3551C50.5649 19.6276 50.8124 19.0201 51.2999 18.5401C51.542 18.3026 51.8295 18.1164 52.1452 17.9927C52.461 17.869 52.7984 17.8103 53.1374 17.8201C53.4728 17.8108 53.8066 17.87 54.1184 17.9941C54.4302 18.1182 54.7133 18.3046 54.9506 18.5418C55.1879 18.7791 55.3743 19.0623 55.4984 19.3741C55.6225 19.6858 55.6817 20.0196 55.6724 20.3551V20.6926C55.6724 22.9876 54.8849 24.9301 53.3249 26.4976C52.5748 27.2697 51.6734 27.8788 50.6771 28.2866C49.6809 28.6944 48.6111 28.8922 47.5349 28.8676C45.2174 28.8676 43.2749 28.0801 41.7074 26.5201C40.9403 25.7598 40.337 24.8506 39.9345 23.8484C39.5321 22.8462 39.3391 21.7722 39.3674 20.6926V7.68756C39.3674 6.93006 39.5999 6.31506 40.0649 5.83506C40.3046 5.59433 40.5917 5.40602 40.908 5.28208C41.2243 5.15814 41.5629 5.10126 41.9024 5.11506ZM41.9024 4.11756C41.4316 4.10264 40.9628 4.18512 40.5254 4.35984C40.088 4.53457 39.6914 4.79776 39.3604 5.13293C39.0295 5.46809 38.7713 5.86801 38.6022 6.30761C38.433 6.7472 38.3565 7.21701 38.3774 7.68756V20.6926C38.3774 23.2801 39.2624 25.4776 41.0099 27.2176C41.8609 28.078 42.8785 28.7559 44.0004 29.2098C45.1223 29.6637 46.3249 29.8841 47.5349 29.8576C50.0999 29.8576 52.2824 28.9651 54.0299 27.2026C54.8861 26.3518 55.5608 25.3363 56.0133 24.2173C56.4658 23.0984 56.6866 21.8993 56.6624 20.6926V20.3551C56.6759 19.8885 56.5939 19.4241 56.4215 18.9903C56.2491 18.5566 55.99 18.1626 55.6599 17.8325C55.3299 17.5025 54.9359 17.2433 54.5021 17.0709C54.0684 16.8986 53.604 16.8166 53.1374 16.8301C52.6696 16.82 52.2046 16.904 51.7699 17.077C51.3351 17.25 50.9396 17.5086 50.6066 17.8373C50.2737 18.166 50.0102 18.5583 49.8316 18.9908C49.6531 19.4233 49.5633 19.8872 49.5674 20.3551V20.6926C49.5674 21.2926 49.3799 21.7651 48.9824 22.1776C48.5924 22.5751 48.1274 22.7626 47.5349 22.7626C46.9349 22.7626 46.4774 22.5751 46.0649 22.1626C45.8681 21.9728 45.7131 21.744 45.6098 21.4909C45.5065 21.2377 45.4571 20.9658 45.4649 20.6926V15.7951H53.1374C55.3799 15.7951 56.6624 14.4901 56.6624 12.2251C56.6789 11.7562 56.5996 11.2889 56.4294 10.8518C56.2592 10.4146 56.0016 10.0168 55.6724 9.68256C55.3391 9.35428 54.9424 9.09723 54.5066 8.92704C54.0708 8.75685 53.605 8.67707 53.1374 8.69256H45.4724V7.68756C45.4859 7.21509 45.4027 6.74483 45.2281 6.30561C45.0534 5.86639 44.791 5.46745 44.4567 5.13322C44.1225 4.799 43.7236 4.53652 43.2843 4.36188C42.8451 4.18724 42.3749 4.1041 41.9024 4.11756Z" fill="#080404"/>
</g>
<path d="M29.895 28.9125C29.5059 28.9275 29.1178 28.862 28.7551 28.7201C28.3925 28.5781 28.0631 28.3628 27.7875 28.0875C27.2625 27.5625 27.015 26.8875 27.015 25.9425V11.565C27.015 10.665 27.2775 9.96001 27.8175 9.42751C28.0933 9.15263 28.4228 8.93752 28.7854 8.79558C29.148 8.65364 29.5359 8.58792 29.925 8.60251C31.905 8.60251 32.9925 9.65251 32.9925 11.565V25.95C32.9994 26.3528 32.923 26.7528 32.7681 27.1247C32.6132 27.4966 32.3832 27.8326 32.0923 28.1114C31.8015 28.3903 31.4562 28.606 31.0781 28.7452C30.7 28.8843 30.2972 28.9438 29.895 28.92V28.9125ZM22.695 28.9125C22.307 28.9274 21.9201 28.8618 21.5587 28.7198C21.1973 28.5778 20.8692 28.3625 20.595 28.0875C20.085 27.5775 19.8525 26.895 19.8525 25.9425V3.78751C19.8525 2.87251 20.1075 2.17501 20.64 1.64251C20.9144 1.36784 21.2426 1.1528 21.6039 1.01083C21.9653 0.868873 22.3521 0.803057 22.74 0.817508C24.7275 0.817508 25.8225 1.86751 25.8225 3.78751V25.9425C25.8272 26.3426 25.7497 26.7394 25.5949 27.1083C25.4401 27.4773 25.2113 27.8105 24.9225 28.0875C24.3193 28.6429 23.5221 28.9392 22.7025 28.9125H22.695ZM29.865 7.56001C28.89 7.56001 28.0425 7.20001 27.345 6.50251C27.0055 6.17577 26.7365 5.78293 26.5546 5.34823C26.3728 4.91354 26.2819 4.44619 26.2875 3.97501C26.2875 3.00001 26.64 2.15251 27.3375 1.45501C27.6649 1.11683 28.058 0.849225 28.4927 0.668651C28.9274 0.488077 29.3944 0.398355 29.865 0.405008C30.84 0.405008 31.6875 0.757508 32.3925 1.45501C33.09 2.15251 33.4425 3.00751 33.4425 3.97501C33.4425 4.95001 33.09 5.80501 32.3925 6.50251C32.0649 6.84033 31.6717 7.1077 31.2371 7.28825C30.8025 7.4688 30.3356 7.55872 29.865 7.55251V7.56001Z" fill="url(#paint4_linear)"/>
<path d="M29.865 0.794974C30.2841 0.789635 30.6999 0.870045 31.0869 1.03126C31.4738 1.19248 31.8237 1.4311 32.115 1.73247C32.7375 2.36247 33.045 3.10497 33.045 3.98247C33.045 4.85997 32.7375 5.59497 32.1075 6.21747C31.8182 6.51999 31.47 6.75994 31.0842 6.92248C30.6985 7.08502 30.2836 7.16671 29.865 7.16247C29.4464 7.16715 29.0313 7.08567 28.6455 6.9231C28.2597 6.76053 27.9115 6.52035 27.6225 6.21747C27 5.59497 26.685 4.84497 26.685 3.97497C26.685 3.10497 27 2.36247 27.6225 1.73247C27.9124 1.43132 28.261 1.19276 28.6467 1.03152C29.0324 0.870281 29.447 0.789776 29.865 0.794974ZM22.74 1.21497C24.48 1.21497 25.425 2.07747 25.425 3.78747V25.9425C25.425 26.7075 25.125 27.33 24.6375 27.8025C24.15 28.275 23.4675 28.515 22.7025 28.515C21.93 28.515 21.3525 28.275 20.88 27.8025C20.4075 27.33 20.25 26.715 20.25 25.9425V3.78747C20.25 3.02247 20.445 2.39997 20.925 1.92747C21.3975 1.45497 21.975 1.21497 22.74 1.21497ZM29.925 8.99997C31.665 8.99997 32.595 9.85497 32.595 11.565V25.95C32.595 26.715 32.3025 27.3375 31.815 27.81C31.335 28.2825 30.66 28.5225 29.895 28.5225C29.13 28.5225 28.545 28.2825 28.065 27.81C27.5925 27.3375 27.42 26.7225 27.42 25.95V11.565C27.42 10.8 27.6225 10.185 28.095 9.71247C28.3339 9.47329 28.62 9.28644 28.9351 9.16377C29.2501 9.04111 29.5872 8.98533 29.925 8.99997ZM29.865 -2.57621e-05C28.785 -2.57621e-05 27.84 0.397474 27.06 1.16997C26.61 1.61997 26.2875 2.12997 26.0925 2.69247C25.7175 1.23747 24.54 0.419974 22.74 0.419974C21.765 0.419974 20.9925 0.727474 20.355 1.36497C20.0468 1.68541 19.8079 2.06585 19.653 2.48261C19.4982 2.89937 19.4308 3.34354 19.455 3.78747V25.9425C19.455 26.6175 19.545 27.5925 20.3175 28.365C20.6282 28.6787 21.0005 28.9247 21.411 29.0874C21.8215 29.25 22.2612 29.3258 22.7025 29.31C23.6231 29.3347 24.5168 28.9982 25.1925 28.3725C25.8675 27.72 26.22 26.8725 26.22 25.9425V5.58747C26.415 6.02247 26.7 6.41997 27.06 6.78747C27.4236 7.16275 27.8598 7.46002 28.3421 7.66118C28.8243 7.86233 29.3425 7.96315 29.865 7.95747C30.945 7.95747 31.89 7.55997 32.67 6.78747C33.0456 6.42415 33.3431 5.98797 33.5443 5.50565C33.7455 5.02334 33.8461 4.50503 33.84 3.98247C33.84 2.89497 33.45 1.95747 32.67 1.17747C32.3076 0.800136 31.8718 0.500999 31.3893 0.29849C30.9069 0.0959807 30.3882 -0.00561064 29.865 -2.57621e-05ZM29.925 8.20497C28.965 8.20497 28.1625 8.51997 27.5325 9.14997C26.9325 9.74997 26.6175 10.5675 26.6175 11.5725V25.9425C26.6175 26.985 26.91 27.7725 27.5025 28.365C28.125 28.995 28.9275 29.31 29.895 29.31C30.3491 29.3347 30.8033 29.2658 31.2296 29.1075C31.6559 28.9491 32.045 28.7048 32.3728 28.3896C32.7006 28.0745 32.9601 27.6953 33.1351 27.2756C33.3101 26.8559 33.3969 26.4046 33.39 25.95V11.565C33.39 9.41997 32.13 8.18997 29.925 8.18997V8.20497Z" fill="white"/>
<path d="M47.7001 28.8075C45.2851 28.8075 43.2376 27.9825 41.6026 26.355C39.9676 24.7275 39.1426 22.665 39.1426 20.2425V7.23752C39.1426 6.37502 39.4126 5.66252 39.9526 5.10002C40.2304 4.82362 40.5623 4.60766 40.9276 4.46568C41.2929 4.32371 41.6835 4.2588 42.0751 4.27502C42.9301 4.27502 43.6501 4.55252 44.2051 5.10002C44.7601 5.66252 45.0451 6.37502 45.0451 7.24502V8.85002H53.3026C54.1651 8.85002 54.8776 9.12002 55.4176 9.66752C55.6916 9.94426 55.9067 10.2737 56.0498 10.636C56.1929 10.9982 56.261 11.3857 56.2501 11.775C56.2501 13.7175 55.2301 14.745 53.3101 14.745H45.0451V20.2425C45.0451 20.9925 45.2926 21.615 45.8176 22.14C46.063 22.3907 46.3576 22.588 46.6828 22.7196C47.008 22.8513 47.3569 22.9144 47.7076 22.905C48.0559 22.9102 48.4017 22.8448 48.7241 22.7128C49.0465 22.5807 49.3389 22.3847 49.5834 22.1366C49.828 21.8885 50.0199 21.5935 50.1473 21.2692C50.2748 20.945 50.3352 20.5983 50.3251 20.25V19.9125C50.3251 19.0725 50.6176 18.3675 51.1876 17.8125C51.7501 17.2575 52.4626 16.9875 53.2951 16.9875C53.6821 16.9783 54.0669 17.0476 54.4264 17.1913C54.7858 17.3349 55.1124 17.5499 55.3865 17.8233C55.6606 18.0966 55.8764 18.4227 56.0209 18.7818C56.1655 19.1409 56.2358 19.5255 56.2276 19.9125V20.25C56.2276 22.65 55.4026 24.69 53.7676 26.34C52.978 27.1461 52.0316 27.7816 50.9866 28.2073C49.9417 28.633 48.8206 28.8398 47.6926 28.815L47.7001 28.8075Z" fill="url(#paint5_linear)"/>
<path d="M42.0749 4.66503C42.8249 4.66503 43.4474 4.90504 43.9274 5.38504C44.4074 5.86503 44.6399 6.48003 44.6399 7.23753V9.24003H53.3024C54.0599 9.24003 54.6749 9.47254 55.1399 9.93754C55.6049 10.41 55.8374 11.0175 55.8374 11.775C55.8374 13.4925 54.9974 14.3475 53.3024 14.3475H44.6399V20.25C44.6399 21.105 44.9399 21.825 45.5399 22.425C46.1249 23.01 46.8524 23.31 47.7074 23.31C48.1084 23.3131 48.5059 23.2358 48.8764 23.0826C49.247 22.9295 49.5831 22.7036 49.8649 22.4183C50.1466 22.1331 50.3684 21.7942 50.517 21.4218C50.6655 21.0494 50.7379 20.6509 50.7299 20.25V19.905C50.7299 19.1775 50.9774 18.57 51.4724 18.09C51.7136 17.8535 51.9999 17.6678 52.3143 17.5442C52.6287 17.4205 52.9647 17.3613 53.3024 17.37C53.6381 17.3596 53.9724 17.4181 54.2847 17.5418C54.5969 17.6655 54.8806 17.8519 55.1181 18.0894C55.3556 18.3269 55.5419 18.6105 55.6656 18.9228C55.7894 19.235 55.8478 19.5693 55.8374 19.905V20.25C55.8374 22.545 55.0574 24.48 53.4974 26.055C52.7464 26.8255 51.8447 27.4329 50.8485 27.8394C49.8523 28.2459 48.783 28.4427 47.7074 28.4175C45.3824 28.4175 43.4474 27.63 41.8799 26.07C41.1128 25.3098 40.5095 24.4006 40.107 23.3984C39.7046 22.3962 39.5116 21.3222 39.5399 20.2425V7.23753C39.5399 6.48003 39.7649 5.85754 40.2374 5.37754C40.4778 5.13815 40.7652 4.95123 41.0814 4.82859C41.3977 4.70595 41.736 4.65026 42.0749 4.66503ZM42.0749 3.87003C41.6308 3.8549 41.1884 3.9317 40.7754 4.09561C40.3624 4.25952 39.9878 4.507 39.6749 4.82253C39.3662 5.14239 39.1249 5.52094 38.9651 5.93577C38.8054 6.35059 38.7305 6.79325 38.7449 7.23753V20.2425C38.7449 22.7775 39.6149 24.9225 41.3249 26.6325C42.1578 27.4734 43.1533 28.1359 44.2506 28.5795C45.3479 29.023 46.5241 29.2384 47.7074 29.2125C48.888 29.2367 50.061 29.0182 51.1537 28.5705C52.2465 28.1229 53.2356 27.4556 54.0599 26.61C54.8973 25.7792 55.5577 24.7873 56.0011 23.6942C56.4446 22.6011 56.6619 21.4295 56.6399 20.25V19.905C56.6523 19.4644 56.5747 19.0258 56.4117 18.6162C56.2488 18.2065 56.004 17.8345 55.6922 17.5227C55.3805 17.211 55.0084 16.9662 54.5988 16.8032C54.1892 16.6403 53.7506 16.5626 53.3099 16.575C52.3649 16.575 51.5624 16.89 50.9099 17.52C50.5911 17.8284 50.3398 18.1996 50.172 18.6102C50.0041 19.0207 49.9234 19.4616 49.9349 19.905V20.25C49.944 20.5471 49.893 20.843 49.7848 21.1199C49.6767 21.3967 49.5137 21.6489 49.3056 21.8612C49.0976 22.0734 48.8487 22.2414 48.5741 22.3551C48.2994 22.4688 48.0046 22.5257 47.7074 22.5225C47.0699 22.5225 46.5374 22.305 46.1024 21.8625C45.8872 21.6538 45.7175 21.4028 45.6039 21.1253C45.4903 20.8478 45.4353 20.5498 45.4424 20.25V15.15H53.3099C55.4249 15.15 56.6399 13.92 56.6399 11.7825C56.6399 10.8075 56.3249 10.005 55.7024 9.38253C55.3869 9.07215 55.0112 8.82954 54.5985 8.66961C54.1858 8.50969 53.7447 8.43581 53.3024 8.45254H45.4499V7.23753C45.4499 6.26253 45.1274 5.45254 44.4974 4.81504C44.1796 4.50259 43.8017 4.25778 43.3866 4.09537C42.9716 3.93295 42.5279 3.8563 42.0824 3.87003H42.0749Z" fill="white"/>
<path d="M7.06511 28.8526C6.67149 28.8673 6.27899 28.8017 5.91151 28.6599C5.54404 28.5181 5.20928 28.3029 4.92761 28.0276C4.65226 27.7459 4.43711 27.4111 4.29528 27.0437C4.15344 26.6762 4.08789 26.2837 4.10261 25.8901V9.40505C4.10261 6.96005 4.93511 4.88255 6.59261 3.23255C8.23511 1.57505 10.3126 0.742554 12.7501 0.742554C15.1801 0.750054 17.2501 1.59005 18.9001 3.25505C19.7079 4.05932 20.3443 5.01891 20.771 6.07591C21.1976 7.13292 21.4057 8.26542 21.3826 9.40505V9.67505C21.4015 10.0708 21.3381 10.4663 21.1965 10.8363C21.0548 11.2063 20.8379 11.543 20.5594 11.8249C20.281 12.1068 19.9472 12.328 19.5789 12.4743C19.2107 12.6206 18.8161 12.689 18.4201 12.6751C18.0233 12.6854 17.6286 12.6148 17.26 12.4677C16.8913 12.3206 16.5565 12.1 16.2758 11.8193C15.9952 11.5387 15.7746 11.2038 15.6275 10.8352C15.4804 10.4666 15.4098 10.0718 15.4201 9.67505V9.40505C15.4292 9.04991 15.366 8.69662 15.2345 8.3666C15.103 8.03657 14.9059 7.73667 14.6551 7.48505C14.4118 7.23057 14.118 7.02973 13.7925 6.89541C13.467 6.76109 13.1171 6.69625 12.7651 6.70505C12.0001 6.70505 11.3701 6.96005 10.8451 7.48505C10.3201 8.01005 10.0651 8.64005 10.0651 9.40505V14.4826H18.5776C19.4476 14.4826 20.1676 14.7676 20.7151 15.3301C21.2626 15.8851 21.5401 16.6051 21.5401 17.4751C21.5401 18.3526 21.2626 19.0651 20.7151 19.6126C20.4335 19.8879 20.0987 20.1031 19.7312 20.2449C19.3637 20.3867 18.9712 20.4523 18.5776 20.4376H10.0651V25.8976C10.0651 26.7676 9.78011 27.4876 9.21761 28.0351C8.93167 28.3087 8.59403 28.5227 8.22444 28.6643C7.85485 28.806 7.46073 28.8725 7.06511 28.8601V28.8526Z" fill="url(#paint6_linear)"/>
<path d="M12.7651 1.14002C15.0901 1.14002 17.0401 1.93502 18.6151 3.53252C20.1901 5.13002 20.9851 7.08752 20.9851 9.40502V9.67502C20.9851 10.44 20.7526 11.0625 20.2801 11.55C20.0378 11.7915 19.7481 11.9802 19.4293 12.1041C19.1104 12.2281 18.7694 12.2845 18.4276 12.27C17.6851 12.27 17.0701 12.0225 16.5676 11.5275C16.0726 11.0325 15.8176 10.41 15.8176 9.66752V9.40502C15.8266 8.99957 15.7542 8.59643 15.6046 8.21949C15.4549 7.84255 15.2311 7.49949 14.9465 7.21063C14.6618 6.92177 14.3221 6.693 13.9474 6.53787C13.5727 6.38274 13.1706 6.30441 12.7651 6.30752C11.8951 6.30752 11.1601 6.60752 10.5601 7.20752C9.96008 7.80752 9.66008 8.53502 9.66008 9.40502V14.88H18.5776C18.9206 14.8644 19.2631 14.9204 19.5833 15.0444C19.9035 15.1683 20.1945 15.3575 20.4376 15.6C20.9026 16.0875 21.1426 16.71 21.1426 17.475C21.1426 18.24 20.9026 18.8625 20.4376 19.335C19.9651 19.8075 19.3426 20.04 18.5776 20.04H9.66758V25.89C9.68218 26.2336 9.62503 26.5764 9.49977 26.8967C9.37452 27.2169 9.1839 27.5075 8.94008 27.75C8.45258 28.2225 7.83008 28.455 7.06508 28.455C6.72339 28.4703 6.38217 28.4156 6.06234 28.2944C5.74251 28.1732 5.4508 27.9879 5.20508 27.75C4.96715 27.5043 4.7819 27.2126 4.66067 26.8928C4.53945 26.5729 4.4848 26.2317 4.50008 25.89V9.40502C4.50008 7.05002 5.28758 5.10002 6.87008 3.51002C8.45258 1.93502 10.4176 1.14002 12.7651 1.14002ZM12.7651 0.345018C10.2151 0.345018 8.04008 1.22252 6.31508 2.94752C4.57508 4.68002 3.70508 6.84752 3.70508 9.40502V25.8975C3.70508 26.8725 4.02008 27.69 4.64258 28.3125C4.96106 28.6262 5.3401 28.8718 5.75659 29.0343C6.17307 29.1968 6.61828 29.2727 7.06508 29.2575C7.51335 29.2774 7.9609 29.2044 8.37961 29.0431C8.79832 28.8818 9.17916 28.6356 9.4982 28.3201C9.81725 28.0046 10.0676 27.6265 10.2336 27.2096C10.3995 26.7927 10.4775 26.346 10.4626 25.8975V20.8425H18.5776C19.5526 20.8425 20.3776 20.52 21.0001 19.8975C21.3128 19.5787 21.5572 19.1994 21.7184 18.7829C21.8796 18.3663 21.9542 17.9213 21.9376 17.475C21.9376 16.5 21.6226 15.6825 21.0076 15.045C20.6915 14.7245 20.3123 14.473 19.894 14.3065C19.4758 14.1399 19.0275 14.062 18.5776 14.0775H10.4626V9.40502C10.4626 8.75252 10.6801 8.22002 11.1301 7.77002C11.5801 7.32002 12.1051 7.10252 12.7651 7.10252C13.0669 7.09833 13.3664 7.15531 13.6455 7.27001C13.9247 7.38472 14.1778 7.55479 14.3894 7.76995C14.6011 7.98511 14.767 8.24091 14.8771 8.52192C14.9872 8.80294 15.0392 9.10334 15.0301 9.40502V9.67502C15.0203 10.1226 15.1016 10.5676 15.2693 10.9828C15.4369 11.3979 15.6872 11.7747 16.0051 12.09C16.3213 12.4088 16.6992 12.6597 17.1158 12.8273C17.5323 12.995 17.9787 13.0759 18.4276 13.065C18.8757 13.081 19.3222 13.004 19.7391 12.8389C20.156 12.6738 20.5342 12.4241 20.8498 12.1057C21.1655 11.7872 21.4117 11.4068 21.5731 10.9885C21.7345 10.5702 21.8075 10.123 21.7876 9.67502V9.40502C21.7876 6.87752 20.9101 4.71752 19.1851 2.97002C18.3514 2.11669 17.3515 1.44346 16.2472 0.991956C15.143 0.540449 13.9578 0.320265 12.7651 0.345018Z" fill="white"/>
<path d="M34.4023 28.95C33.5398 28.95 32.8273 28.68 32.2873 28.14C32.0127 27.8609 31.7979 27.5287 31.6561 27.1638C31.5142 26.7988 31.4483 26.4088 31.4623 26.0175V17.4225C31.4623 15.0225 32.3023 12.975 33.9523 11.3475C34.7482 10.5437 35.699 9.90985 36.7471 9.48441C37.7952 9.05897 38.9188 8.8508 40.0498 8.87251C40.4381 8.86322 40.8242 8.93298 41.1847 9.07754C41.5451 9.2221 41.8725 9.43844 42.1467 9.71342C42.421 9.9884 42.6365 10.3163 42.7802 10.6771C42.9238 11.038 42.9926 11.4243 42.9823 11.8125C42.9823 13.05 42.4723 14.5725 40.0048 14.79C39.2323 14.8575 38.6098 15.12 38.1073 15.6075C37.8647 15.8415 37.6744 16.1242 37.549 16.437C37.4236 16.7499 37.3659 17.0858 37.3798 17.4225V26.0175C37.3798 26.88 37.0948 27.5925 36.5398 28.14C36.2554 28.4105 35.9198 28.6216 35.5528 28.7607C35.1857 28.8997 34.7946 28.9641 34.4023 28.95Z" fill="url(#paint7_linear)"/>
<path d="M40.0499 9.27752C40.3853 9.26821 40.7191 9.32742 41.0309 9.45152C41.3427 9.57562 41.6258 9.76201 41.8631 9.99929C42.1004 10.2366 42.2868 10.5197 42.4109 10.8315C42.535 11.1433 42.5942 11.4771 42.5849 11.8125C42.5849 13.38 41.7149 14.235 39.9749 14.3925C39.1744 14.4414 38.4159 14.7676 37.8299 15.315C37.5493 15.5861 37.3288 15.9131 37.1828 16.2749C37.0368 16.6367 36.9685 17.0251 36.9824 17.415V26.025C36.9824 26.775 36.7424 27.3975 36.2624 27.8625C35.7824 28.3275 35.1599 28.56 34.4024 28.56C33.6524 28.56 33.0299 28.3275 32.5649 27.8625C32.3297 27.6198 32.1465 27.3317 32.0265 27.0157C31.9066 26.6998 31.8524 26.3626 31.8674 26.025V17.4225C31.8674 15.12 32.6549 13.1925 34.2299 11.625C34.9899 10.8593 35.8979 10.2563 36.8984 9.8527C37.899 9.44912 38.9713 9.25342 40.0499 9.27752ZM40.0499 8.48252C37.5449 8.48252 35.3999 9.34502 33.6749 11.0625C32.8291 11.8882 32.1618 12.8787 31.7141 13.9727C31.2665 15.0666 31.0481 16.2408 31.0724 17.4225V26.0175C31.0724 26.9925 31.3874 27.8025 32.0024 28.4175C32.6249 29.04 33.4274 29.3475 34.4024 29.3475C35.3774 29.3475 36.1799 29.04 36.8174 28.425C37.1352 28.112 37.3846 27.7363 37.5499 27.322C37.7151 26.9076 37.7926 26.4634 37.7774 26.0175V17.4225C37.7774 16.785 37.9724 16.2825 38.3774 15.8925C38.8314 15.4678 39.4214 15.2179 40.0424 15.1875C42.1949 15 43.3799 13.8 43.3799 11.8125C43.3912 11.3721 43.3128 10.934 43.1495 10.5249C42.9862 10.1158 42.7413 9.74412 42.4298 9.43262C42.1183 9.12111 41.7467 8.87624 41.3375 8.7129C40.9284 8.54957 40.4903 8.47118 40.0499 8.48252Z" fill="white"/>
</g>
<defs>
<linearGradient id="paint0_linear" x1="28.9198" y1="8.90253" x2="20.2873" y2="29.46" gradientUnits="userSpaceOnUse">
<stop stop-color="#FAB577"/>
<stop offset="0.09" stop-color="#F9AE71"/>
<stop offset="0.41" stop-color="#F6985F"/>
<stop offset="0.72" stop-color="#F58B55"/>
<stop offset="1" stop-color="#F48651"/>
</linearGradient>
<linearGradient id="paint1_linear" x1="38.1751" y1="11.7075" x2="30.9676" y2="30.075" gradientUnits="userSpaceOnUse">
<stop stop-color="#F48B72"/>
<stop offset="0.34" stop-color="#F27764"/>
<stop offset="0.69" stop-color="#F16A5B"/>
<stop offset="1" stop-color="#F16558"/>
</linearGradient>
<linearGradient id="paint2_linear" x1="6.60017" y1="26.6475" x2="18.1427" y2="1.10249" gradientUnits="userSpaceOnUse">
<stop stop-color="#F48020"/>
<stop offset="0.15" stop-color="#F68E2B"/>
<stop offset="0.45" stop-color="#F9A43C"/>
<stop offset="0.74" stop-color="#FAB146"/>
<stop offset="1" stop-color="#FBB64A"/>
</linearGradient>
<linearGradient id="paint3_linear" x1="49.2973" y1="9.72005" x2="43.0423" y2="27.225" gradientUnits="userSpaceOnUse">
<stop stop-color="#F38475"/>
<stop offset="0.35" stop-color="#F16E66"/>
<stop offset="0.69" stop-color="#F0615D"/>
<stop offset="1" stop-color="#F05C5A"/>
</linearGradient>
<linearGradient id="paint4_linear" x1="29.07" y1="8.49001" x2="20.4975" y2="28.92" gradientUnits="userSpaceOnUse">
<stop stop-color="#FAB577"/>
<stop offset="0.09" stop-color="#F9AE71"/>
<stop offset="0.41" stop-color="#F6985F"/>
<stop offset="0.72" stop-color="#F58B55"/>
<stop offset="1" stop-color="#F48651"/>
</linearGradient>
<linearGradient id="paint5_linear" x1="49.4326" y1="9.34502" x2="43.2376" y2="26.6925" gradientUnits="userSpaceOnUse">
<stop stop-color="#F38475"/>
<stop offset="0.35" stop-color="#F16E66"/>
<stop offset="0.69" stop-color="#F0615D"/>
<stop offset="1" stop-color="#F05C5A"/>
</linearGradient>
<linearGradient id="paint6_linear" x1="6.80261" y1="26.1226" x2="18.2626" y2="0.750055" gradientUnits="userSpaceOnUse">
<stop stop-color="#F48020"/>
<stop offset="0.15" stop-color="#F68E2B"/>
<stop offset="0.45" stop-color="#F9A43C"/>
<stop offset="0.74" stop-color="#FAB146"/>
<stop offset="1" stop-color="#FBB64A"/>
</linearGradient>
<linearGradient id="paint7_linear" x1="38.3173" y1="11.3175" x2="31.1773" y2="29.52" gradientUnits="userSpaceOnUse">
<stop stop-color="#F48B72"/>
<stop offset="0.34" stop-color="#F27764"/>
<stop offset="0.69" stop-color="#F16A5B"/>
<stop offset="1" stop-color="#F16558"/>
</linearGradient>
<clipPath id="clip0">
<rect width="60" height="30" fill="white"/>
</clipPath>
</defs>
</svg>
