<?xml version="1.0" encoding="utf-8"?>
<!-- Generator: Adobe Illustrator 26.4.1, SVG Export Plug-In . SVG Version: 6.00 Build 0)  -->
<svg version="1.1" id="DatingCharts_x5F_logo" xmlns="http://www.w3.org/2000/svg" xmlns:xlink="http://www.w3.org/1999/xlink"
	 x="0px" y="0px" viewBox="0 0 150 40" style="enable-background:new 0 0 150 40;" xml:space="preserve">
<style type="text/css">
	.st0{fill:#960F5B;}
	.st1{fill:#FFFFFF;}
</style>
<path class="st0" d="M27.9,0.1h-16C5.3,0.1,0,5.4,0,12v16c0,6.6,5.3,11.9,11.9,11.9h16c6.6,0,11.9-5.3,11.9-11.9V12
	C39.8,5.4,34.5,0.1,27.9,0.1z"/>
<path class="st1" d="M30.5,12.2L30.5,12.2c-2.8-2.8-7.4-2.8-10.2,0l-0.4,0.4l-0.4-0.4c-2.8-2.8-7.4-2.8-10.2,0l0,0
	c-2.8,2.8-2.8,7.4,0,10.2l0.4,0.4l0,0l7.9,7.9c0.2,0.2,0.4,0.4,0.6,0.5c1.2,0.7,2.8,0.6,3.9-0.5l7.9-7.9l0,0l0.4-0.4
	C33.4,19.5,33.4,15,30.5,12.2z"/>
<g>
	<path d="M60.9,14.2h-6.6l-1.1,3.4h-4.4l6.4-17.3h4.7l6.4,17.3h-4.4L60.9,14.2z M55.3,10.9h4.4l-2.2-7.3L55.3,10.9z"/>
	<path d="M71.2,17.6V0.3h10.9v3.4h-6.6v3.9h6.3V11h-6.3v6.6H71.2z"/>
	<path d="M87.5,17.6V0.3h10.9v3.4h-6.6v3.9h6.3V11h-6.3v6.6H87.5z"/>
	<path d="M113.6,14.2H107l-1.1,3.4h-4.4L108,0.3h4.7l6.4,17.3h-4.4L113.6,14.2z M108.1,10.9h4.4l-2.2-7.3L108.1,10.9z"/>
	<path d="M128.4,17.6h-4.3V0.3h4.3V17.6z"/>
	<path d="M147.8,5.8c0,1.2-0.3,2.2-1,3c-0.6,0.9-1.6,1.5-2.7,2l5.7,6.8h-5.3l-4.8-6H139v6h-4.3V0.3h5.5c1.1,0,2.1,0.1,3,0.3
		s1.7,0.6,2.4,1c0.7,0.5,1.2,1,1.6,1.7S147.8,4.8,147.8,5.8z M143.7,5.8c0-0.8-0.3-1.4-0.9-1.7c-0.6-0.4-1.5-0.6-2.5-0.6H139v4.9h1
		c1.1,0,2-0.2,2.7-0.7C143.4,7.3,143.7,6.6,143.7,5.8z"/>
	<path d="M58.6,22c0.9,0,1.8,0.1,2.7,0.3c0.9,0.2,1.7,0.4,2.4,0.7l-0.6,3.1c-0.5-0.2-1.1-0.4-1.8-0.5s-1.3-0.2-2-0.2
		c-1.8,0-3.2,0.5-4.2,1.4s-1.5,2.3-1.5,4.2s0.5,3.3,1.5,4.2s2.4,1.4,4.2,1.4c0.7,0,1.3-0.1,2-0.2c0.7-0.1,1.3-0.3,1.8-0.5l0.6,3.1
		c-0.7,0.3-1.4,0.6-2.4,0.7c-0.9,0.2-1.8,0.3-2.7,0.3c-1.5,0-2.9-0.2-4-0.7c-1.2-0.5-2.1-1.1-2.9-1.9c-0.8-0.8-1.4-1.7-1.8-2.8
		c-0.4-1.1-0.6-2.3-0.6-3.6s0.2-2.5,0.6-3.6c0.4-1.1,1-2,1.8-2.8s1.8-1.4,2.9-1.9C55.8,22.2,57.1,22,58.6,22z"/>
	<path d="M78.5,22.3h4.3v11.1c0,2-0.6,3.6-1.9,4.8s-3.1,1.7-5.4,1.7s-4.1-0.6-5.4-1.7c-1.3-1.2-1.9-2.8-1.9-4.8V22.3h4.3v11.2
		c0,1,0.3,1.7,0.8,2.3c0.5,0.5,1.3,0.8,2.3,0.8s1.8-0.3,2.3-0.8s0.8-1.3,0.8-2.3V22.3H78.5z"/>
	<path d="M100.2,27.9c0,0.9-0.2,1.7-0.6,2.5c-0.4,0.7-0.9,1.3-1.7,1.8c-0.7,0.5-1.5,0.9-2.5,1.1c-1,0.3-2,0.4-3.1,0.4H92v5.8h-4.3
		V22.3h5c1.1,0,2.1,0.1,3,0.3c0.9,0.2,1.7,0.6,2.4,1c0.7,0.5,1.2,1,1.6,1.8C100.1,26.1,100.2,26.9,100.2,27.9z M96.1,27.9
		c0-1.6-1.1-2.4-3.4-2.4H92v4.9h0.7c1.1,0,2-0.2,2.6-0.7C95.8,29.3,96.1,28.7,96.1,27.9z"/>
	<path d="M108.3,39.6H104V22.3h4.3V39.6z"/>
	<path d="M113.5,22.3h5.3c1.5,0,2.9,0.2,4.2,0.7c1.3,0.4,2.4,1,3.3,1.8s1.6,1.7,2.1,2.7c0.5,1.1,0.8,2.2,0.8,3.5s-0.3,2.4-0.8,3.5
		s-1.2,2-2.1,2.7c-0.9,0.8-2,1.4-3.3,1.8c-1.3,0.4-2.7,0.7-4.2,0.7h-5.3C113.5,39.7,113.5,22.3,113.5,22.3z M119,36.2
		c0.9,0,1.7-0.1,2.4-0.4c0.7-0.2,1.3-0.6,1.8-1c0.5-0.5,0.9-1,1.2-1.7c0.3-0.7,0.4-1.4,0.4-2.2s-0.1-1.6-0.4-2.2
		c-0.3-0.7-0.7-1.2-1.2-1.7s-1.1-0.8-1.8-1c-0.7-0.2-1.5-0.4-2.4-0.4h-1.3v10.6C117.7,36.2,119,36.2,119,36.2z"/>
</g>
</svg>
