<?xml version="1.0" encoding="utf-8"?>
<!-- Generator: Adobe Illustrator 24.1.1, SVG Export Plug-In . SVG Version: 6.00 Build 0)  -->
<svg version="1.1" id="DatingCharts_x5F_logo" xmlns="http://www.w3.org/2000/svg" xmlns:xlink="http://www.w3.org/1999/xlink"
	 x="0px" y="0px" viewBox="0 0 150 40" style="enable-background:new 0 0 150 40;" xml:space="preserve">
<g id="Charts">
	<path d="M57.6,40c-2.6,0-4.7-0.9-6.5-2.6c-1.8-1.7-2.6-3.9-2.6-6.6c0-2.6,0.9-4.8,2.7-6.5c1.8-1.8,4-2.6,6.6-2.6
		c3.1,0,5.6,1.2,7.4,3.7l-3.6,2.8c-1.1-1.4-2.4-2-3.9-2c-1.2,0-2.2,0.5-3,1.4c-0.8,0.9-1.2,2-1.2,3.4c0,1.3,0.4,2.5,1.2,3.4
		c0.8,0.9,1.8,1.3,3,1.3c0.9,0,1.6-0.2,2.2-0.5c0.6-0.4,1.2-0.9,1.8-1.6l3.7,2.6c-0.9,1.3-2,2.2-3.2,2.9C60.9,39.7,59.4,40,57.6,40z
		"/>
	<path d="M67.5,39.6V22h4.9v6.6h6.3V22h4.9v17.6h-4.9v-6.7h-6.3v6.7H67.5z"/>
	<path d="M85.2,39.6l7.5-17.8h4.7l7.5,17.8h-5.2l-1.3-3.1h-6.8l-1.3,3.1H85.2z M93.1,32.7h4l-2-5L93.1,32.7z"/>
	<path d="M106.7,39.6V22h8.3c2.6,0,4.5,0.6,5.7,1.9c1,1,1.6,2.4,1.6,4.2c0,2.6-1.2,4.4-3.6,5.4l4.2,6.1h-5.6l-3.6-5.3h-2.1v5.3
		H106.7z M111.6,30.5h3.2c0.8,0,1.5-0.2,1.9-0.6c0.5-0.4,0.7-0.9,0.7-1.6c0-0.7-0.2-1.2-0.7-1.6c-0.5-0.4-1.1-0.5-2-0.5h-3.2V30.5z"
		/>
	<path d="M129.1,39.6V26.3h-5.3V22h15.5v4.3H134v13.4H129.1z"/>
	<path d="M145.4,33.5c-2.1,0-3.9-0.6-5.3-1.9l1.8-2.1c1.1,0.9,2.4,1.4,3.7,1.4c0.9,0,1.3-0.3,1.3-0.8c0-0.2-0.1-0.4-0.4-0.6
		c-0.3-0.2-0.8-0.3-1.5-0.5c-0.7-0.2-1.3-0.3-1.7-0.5c-0.4-0.2-0.9-0.4-1.3-0.6c-0.4-0.3-0.7-0.6-1-1c-0.2-0.4-0.3-0.9-0.3-1.5
		c0-1.1,0.4-1.9,1.2-2.6c0.8-0.7,1.9-1,3.2-1c1.9,0,3.4,0.5,4.7,1.5l-1.6,2.2c-1.1-0.7-2.1-1.1-3.2-1.1c-0.4,0-0.6,0.1-0.8,0.2
		c-0.2,0.1-0.3,0.3-0.3,0.6c0,0.3,0.1,0.5,0.4,0.6c0.3,0.2,0.8,0.3,1.6,0.5c1.4,0.3,2.5,0.7,3.2,1.3c0.7,0.5,1,1.3,1,2.3
		c0,1.1-0.4,2.1-1.3,2.7C147.9,33.1,146.8,33.5,145.4,33.5z"/>
</g>
<g id="Dating">
	<path d="M49.4,18V0.4h6.8c3.1,0,5.5,0.8,7.3,2.4c1.8,1.6,2.7,3.7,2.7,6.3c0,2.6-0.9,4.7-2.7,6.4c-1.8,1.7-4.2,2.5-7.4,2.5H49.4z
		 M54.3,13.7h2c1.5,0,2.7-0.4,3.5-1.2c0.9-0.8,1.3-1.9,1.3-3.3c0-1.4-0.4-2.5-1.3-3.3c-0.9-0.8-2.1-1.2-3.5-1.2h-2V13.7z"/>
	<path d="M67.3,18l7.5-17.8h4.7L87,18h-5.2l-1.3-3.1h-6.8L72.4,18H67.3z M75.1,11h4l-2-5L75.1,11z"/>
	<path d="M93,18V4.6h-5.3V0.4h15.5v4.3h-5.3V18H93z"/>
	<path d="M105.4,18V0.4h4.9V18H105.4z"/>
	<path d="M113.6,18V0.4h4.6l7.3,9.3V0.4h4.8V18h-4.3l-7.5-9.7V18H113.6z"/>
	<path d="M142.3,18.4c-2.8,0-5.1-0.9-6.9-2.6c-1.8-1.7-2.7-3.9-2.7-6.6c0-2.6,0.9-4.8,2.7-6.5c1.8-1.8,4.1-2.6,6.8-2.6
		c2.8,0,5.2,0.9,7.2,2.6L146.5,6c-1.3-1.1-2.7-1.7-4.3-1.7c-1.3,0-2.3,0.5-3.2,1.4c-0.9,0.9-1.3,2.1-1.3,3.5c0,1.4,0.4,2.6,1.3,3.5
		c0.9,0.9,2,1.4,3.4,1.4c1.1,0,2.1-0.2,2.8-0.7v-2.1h-3.5V7.7h8.1v7.9C147.8,17.4,145.3,18.4,142.3,18.4z"/>
</g>
<g id="Icon">
	<path d="M35.1,9l-6.4,4.9c-2.5-3.1-5.4-4.6-8.8-4.6c-2.8,0-5.1,1-6.9,3.1c-1.8,2.1-2.7,4.6-2.7,7.6c0,3,0.9,5.6,2.7,7.6
		c1.8,2,4.1,3.1,6.9,3.1c1.9,0,3.6-0.4,5-1.2c1.4-0.8,2.7-2,4.1-3.6l6.4,4.5c1.9-3,2.8-6.5,2.8-10.5C38.1,15.7,37.1,12.1,35.1,9z"/>
	<path d="M4.9,34.9c-2.2-2.2-3.9-4.8-4.8-7.7V40h13.5C10.3,39.1,7.4,37.4,4.9,34.9z"/>
	<path d="M5,5.2c2.6-2.5,5.5-4.3,8.9-5.2H0.1v12.9C1.1,10,2.7,7.5,5,5.2z"/>
</g>
</svg>
