<?xml version="1.0" encoding="utf-8"?>
<!-- Generator: Adobe Illustrator 26.4.1, SVG Export Plug-In . SVG Version: 6.00 Build 0)  -->
<svg version="1.1" id="DatingCharts_x5F_logo" xmlns="http://www.w3.org/2000/svg" xmlns:xlink="http://www.w3.org/1999/xlink"
	 x="0px" y="0px" viewBox="0 0 150 40" style="enable-background:new 0 0 150 40;" xml:space="preserve">
<style type="text/css">
	.st0{fill:#FFFFFF;}
	.st1{font-family:'Seravek-Bold';}
	.st2{font-size:26px;}
	.st3{letter-spacing:2;}
	.st4{letter-spacing:1;}
</style>
<path d="M27.9,0.1h-16C5.3,0.1,0,5.4,0,12v16c0,6.6,5.3,11.9,11.9,11.9h16c6.6,0,11.9-5.3,11.9-11.9V12C39.8,5.4,34.5,0.1,27.9,0.1z
	"/>
<path class="st0" d="M30.5,12.2L30.5,12.2c-2.8-2.8-7.4-2.8-10.2,0l-0.4,0.4l-0.4-0.4c-2.8-2.8-7.4-2.8-10.2,0l0,0
	c-2.8,2.8-2.8,7.4,0,10.2l0.4,0.4l0,0l7.9,7.9c0.2,0.2,0.4,0.4,0.6,0.5c1.2,0.7,2.8,0.6,3.9-0.5l7.9-7.9l0,0l0.4-0.4
	C33.4,19.5,33.4,15,30.5,12.2z"/>
<text transform="matrix(1 0 0 1 48.4484 17.5859)"><tspan x="0" y="0" class="st1 st2 st3">affair</tspan><tspan x="105" y="0" class="st1 st2 st4"> </tspan><tspan x="0" y="22" class="st1 st2 st4">cupid</tspan></text>
</svg>
