<svg width="160" height="40" viewBox="0 0 160 40" fill="none" xmlns="http://www.w3.org/2000/svg">
<path d="M8.15 18.93H3.09V14.5H9.1V12.08H0V28H3.09V21.33H8.15V18.93ZM13.98 12.07H10.88V28H19.93V25.6H13.98V12.07ZM25.03 12.07H21.95V28H25.03V12.07ZM32.62 21.62C33.25 21.62 33.73 21.84 34.07 22.28C34.4 22.73 34.57 23.36 34.57 24.17V25.29C34.57 25.81 34.6 26.34 34.67 26.87C34.74 27.4 34.9 27.78 35.16 28.02H38.36V27.79C38.0619 27.501 37.8684 27.1211 37.81 26.71C37.71 26.22 37.66 25.76 37.66 25.31V24.15C37.66 23.19 37.47 22.38 37.11 21.75C36.75 21.12 36.15 20.64 35.31 20.36C35.9876 20.0407 36.5626 19.5385 36.97 18.91C37.36 18.31 37.55 17.59 37.55 16.77C37.55 15.29 37.09 14.14 36.18 13.32C35.136 12.4468 33.7989 12.0035 32.44 12.08H27.67V28.02H30.76V21.62H32.62ZM30.76 14.49H32.45C33.1 14.49 33.6 14.71 33.95 15.14C34.29 15.58 34.46 16.17 34.46 16.92C34.46 17.65 34.29 18.22 33.94 18.62C33.59 19.01 33.09 19.21 32.42 19.21H30.76V14.49ZM48.77 12.07H38.27V14.49H41.92V28H45.02V14.5H48.76V12.08L48.77 12.07ZM52.7 12.07H49.32L53.89 22.13V28.01H56.97V22.33L61.63 12.07H58.25L55.5 19H55.44L52.7 12.07ZM113.47 28.02H116.7L112.18 12.07H108.98L104.45 28.02H107.68L108.58 24.56H112.56L113.46 28.02H113.47ZM110.53 17.07H110.6L111.92 22.13H109.21L110.53 17.07ZM124.52 25.33C124.18 25.7 123.69 25.88 123.02 25.88C122.23 25.88 121.64 25.66 121.23 25.22C120.83 24.78 120.63 24.06 120.63 23.07H117.61L117.59 23.13C117.55 24.85 118.07 26.13 119.14 26.98C120.248 27.8379 121.619 28.2865 123.02 28.25C124.56 28.25 125.79 27.85 126.72 27.07C127.18 26.6736 127.543 26.1775 127.782 25.6195C128.021 25.0615 128.13 24.4563 128.1 23.85C128.1 22.53 127.7 21.48 126.92 20.7C125.915 19.7977 124.718 19.1345 123.42 18.76C122.52 18.34 121.87 17.96 121.5 17.61C121.13 17.26 120.94 16.81 120.94 16.27C120.94 15.69 121.1 15.2 121.44 14.81C121.609 14.6158 121.821 14.4626 122.058 14.3622C122.296 14.2617 122.553 14.2165 122.81 14.23C123.5 14.23 124.03 14.43 124.4 14.87C124.76 15.29 124.95 15.92 124.95 16.74H127.95L127.97 16.68C128.015 16.0271 127.915 15.3724 127.678 14.7624C127.441 14.1523 127.073 13.6018 126.6 13.15C125.574 12.2458 124.236 11.7761 122.87 11.84C121.41 11.84 120.21 12.24 119.27 13.07C118.808 13.4627 118.441 13.9543 118.195 14.5082C117.95 15.0621 117.832 15.6642 117.85 16.27C117.85 17.57 118.26 18.6 119.09 19.33C119.91 20.06 121.15 20.71 122.79 21.29C123.62 21.64 124.2 22 124.53 22.37C124.85 22.74 125.02 23.24 125.02 23.87C125.02 24.48 124.85 24.97 124.52 25.33ZM133.36 12.07H130.28V28H133.36V12.07ZM144.18 28.02H147.41L142.89 12.07H139.69L135.17 28.02H138.39L139.29 24.56H143.27L144.18 28.02ZM141.25 17.07H141.31L142.64 22.13H139.92L141.25 17.07ZM160 12.07H156.91V22.24L156.85 22.25L151.78 12.07H148.69V28H151.79V17.85L151.85 17.84L156.91 28.02H160V12.07Z" fill="#1D1539"/>
<path fill-rule="evenodd" clip-rule="evenodd" d="M83.38 23.85C83.74 23.92 83.69 21.9 84.02 22.35C84.06 22.4 84.58 23.89 85.36 24.16C88.2 25.16 94.51 25.76 93.85 24.39C93.51 23.69 88.01 20.69 87.65 19.99C87.48 19.65 85.6 20.31 84.68 20.53C83.83 20.73 83.92 20.5 84.02 20.2C84.62 18.34 89.46 18.63 90.64 16.55C92.02 14.13 94.97 12.05 93.84 11.57C93.06 11.24 86.64 4.59999 84.91 6.29999C84.4 6.79999 84.39 11.15 83.81 16.76C83.76 17.23 82.24 18.01 82.1 17.62C81.94 17.19 83.32 7.95999 82.95 7.74999C81.09 6.64999 80.13 6.12999 78.89 6.22999C77.55 6.32999 70.03 13.43 70.34 14.78C70.72 16.38 78.07 20.32 79.74 21.06C80.31 21.3 75.04 20.38 73.76 20.63C71.36 21.09 70.88 29.11 72.48 30.8C73.01 31.36 74.13 30.23 75.05 30.29C75.78 30.33 79.39 23.46 79.95 23.2C80.53 22.94 78.47 19.98 81.25 22.13C82.35 22.99 80.55 25.93 80.81 26.85C81.16 28.08 82.96 34.09 85.3 34.01C86.1 33.98 89.89 32.43 89.57 31.87C86.41 26.25 82.33 23.63 83.37 23.85H83.38Z" fill="white"/>
<path fill-rule="evenodd" clip-rule="evenodd" d="M81.33 25.14C82.31 25.14 82.45 24.95 82.86 25.56C82.66 25.84 82.54 25.98 82.03 25.98C81.48 25.98 81.48 25.48 81.33 25.14ZM75.79 21.26C76.74 21.26 76.74 22.36 75.79 22.36C75.16 22.36 74.99 21.26 75.79 21.26ZM83.27 21.54C84.29 21.3 84.71 22.2 85.46 22.29C85.82 22.33 85.64 22.05 86 22.42C86.18 22.62 86.16 22.77 86.1 22.97C85.96 23.42 85.52 23.65 85.08 23.76C84.76 23.16 84.76 23.26 85.08 22.65C84.66 22.37 84.78 22.28 84.26 22.07C83.74 21.86 83.62 22.01 83.27 21.54ZM76.77 21.95C77.01 21.03 77.75 21.33 78.83 21.21C78.87 21.21 79.55 21.01 79.58 21.36C79.58 21.42 79.61 21.44 79.62 21.46L79.66 21.7C79.68 21.91 79.98 22.48 79.96 22.67C79.87 23.52 78.79 23.5 77.83 23.99C76.83 24.49 76.26 24.56 75.72 24.93C73.02 26.7 73.21 23.78 75.09 24.03C75.92 24.15 75.11 24.51 76.57 23.98C77.57 23.62 78.75 23.27 79.26 22.51C78.33 22.29 78.68 21.93 78.56 21.67C77.81 21.67 77.26 21.72 76.76 21.95H76.77ZM81.61 21.26C81.76 20.7 82.71 19.96 82.71 20.98C82.71 21.12 82.66 21.33 82.66 21.33C82.63 21.9 82.94 21.79 83 22.51C83.44 22.21 83.1 22.28 83.69 22.23C84.17 22.96 84.04 23.36 84.75 24.08C85.45 24.78 85.85 24.65 86.74 25.01C88.76 25.83 88.38 27.24 89.52 28.18C90.62 29.08 91.91 29.75 93.02 30.65C93.68 31.2 93.86 31.71 94.2 32.38C94.39 32.75 94.7 32.83 95.15 32.95C96.82 33.38 98.49 33 100 32.33C100.52 32.09 100.54 32.06 100.98 31.78C101.41 31.51 101.49 31.52 101.88 31.15C105.16 27.95 102.24 26.6 102.68 22.67C102.84 21.31 102.91 18.77 101.78 17.85C101.13 17.33 99.85 16.61 98.98 16.73C98.78 16.76 98.33 16.9 98.19 16.92C97.91 16.97 97.6 16.99 97.34 17.04C95.65 17.31 93.82 17.54 92.37 18.17C91.4 18.59 90.68 19.07 89.59 19.4C88.53 19.72 86.66 19.4 85.97 19.8C85.54 20.04 85.14 20.3 84.64 20.42C84.54 20.45 84.1 20.91 83.96 19.32C83.94 19.34 83.91 19.35 83.91 19.4L83.82 19.87C82.83 19.79 82.95 18.21 83.69 18.21C84.49 18.21 83.79 18.9 84.12 19.28C84.32 19.52 84.32 19.43 84.52 19.73C88.05 17.86 87.97 19.48 91.22 17.83C95.55 15.64 99.69 16.69 101.22 14.83C102.34 13.49 101.25 12 100.59 10.85C99.37 8.73 97.75 5.89 95.99 4.22C94.79 3.1 93.23 3.22 91.58 3.22L86.16 3.48C84.52 3.82 84.82 4.22 83.82 4.88C84.46 7.62 83.94 8.7 83.97 11.41C83.97 12.36 83.56 16.52 82.94 17.17C82.7 17.42 82.91 17.32 82.72 17.24C82.31 17.06 82.36 17.26 82.55 16.25C82.65 15.74 82.69 15.48 82.78 14.94C83.19 12.46 83.95 9.14 83.56 6.84C83.11 4.19 82.31 3.6 80.67 2.08C78.6 0.149998 76.9 -0.220002 74.2 0.779998C71.7 1.71 71.42 1.98 69.53 3.74C67.93 5.24 64.16 6.76 64.16 10.58C64.1426 11.6359 64.4114 12.6769 64.9378 13.5924C65.4642 14.5079 66.2287 15.2638 67.15 15.78C68.48 16.61 69.67 15.39 73.42 17.82C74.72 18.66 75.7 19.09 77.05 19.73C77.07 18.83 77.69 18.74 78.14 19.2C78.64 19.71 77.89 19.38 78.68 19.62C79.1 19.74 79.87 19.76 80.38 19.87C80.08 20.3 79.67 20.15 79.13 20.15C78.32 20.15 78.36 19.49 77.88 20.15C78.54 20.21 79.38 20.38 79.54 20.98C75.04 20.98 72.34 16.82 69.01 16.82C68.0019 16.7964 67.0032 17.019 66.1005 17.4686C65.1979 17.9181 64.4185 18.5811 63.83 19.4C62.531 21.2979 61.8277 23.5402 61.81 25.84C61.81 28.67 63.03 30.34 64.47 31.78C65.77 33.07 68.59 34.58 70.81 34.58C72.11 34.58 73.9 33.88 74.45 33.09C75.64 31.4 80.53 23.05 80.08 22.53C80.38 22.89 79.87 22.36 79.82 21.68C80.46 21.69 80.54 21.82 80.79 22.23C81.39 23.23 81.27 24.28 80.59 25.23C80.03 26.01 79.66 27.1 79.15 27.95L78.3 29.32C77.66 30.39 75.25 33.76 75.25 34.86C75.25 37.39 77.01 37.95 78.94 38.93C80.82 39.89 82.38 40.12 84.34 39.12C85.96 38.29 87.95 37.86 89.65 37.36C91.31 36.86 93.39 35.53 93.39 33.61C93.39 31.47 92.08 30.92 90.66 30.1C90.1367 29.8079 89.6471 29.4591 89.2 29.06C87.99 27.94 87.8 26.37 86.25 25.77C84.95 25.27 84.34 25.17 83.56 24.03L83.28 23.62C83.13 24.26 83.26 24.39 83.64 24.92C84.17 25.69 84.7 26.47 85.47 26.98C85.92 27.28 86.47 27.43 86.47 28.06C86.47 28.33 86.22 28.62 86.05 28.62C84.88 28.62 85.47 27.94 84.98 27.32C83.92 25.96 84.24 26.94 83 24.59C82.55 24.89 82.81 24.95 82.17 25.01C82.31 24.48 82.44 24.61 82.73 24.18C81.59 24.08 82.36 22.96 83 22.78C82.8 22.17 83.07 22.84 82.77 22.54C82.47 22.24 82.32 21.86 82.05 21.66L81.62 21.26H81.61ZM83 22.92L83.04 22.88C83.04 22.88 82.98 22.91 83 22.92ZM86.6 21.82H85.9L85.77 21.12C85.07 21.12 84.91 21.26 84.11 21.26C84.31 20.52 84.81 20.75 85.63 20.71C86.84 20.66 85.95 20.18 87.15 20.15C87.45 21.42 86.81 21.03 86.6 21.81V21.82ZM80.5 21.4C80.34 20.7 79.95 20.4 81.06 20.15C80.8778 19.9991 80.7339 19.8072 80.64 19.59C81.29 18.62 81.29 18.54 82.03 19.04C81.94 20.03 81.36 19.66 81.29 20.27C81.2 21.07 81.59 21.37 80.5 21.4ZM75.1 15.7C75.5 15.7 75.55 15.92 75.6 16.14C75.7 16.63 74.81 16.35 77.1 17.74L80.09 19.32C79.55 19.3 78.66 18.94 78.26 18.78C77.68 18.55 77.13 18.28 76.58 17.98C75.86 17.58 75.73 17.22 75.27 16.92C74.93 16.7 74.7 16.86 74.6 16.36C74.54 16.08 74.7 15.71 75.1 15.71V15.7ZM84.8 19.04C85 18.61 84.86 18.61 85.15 18.14C85.65 17.35 86.32 17.24 86.32 15.29C86.86 15.03 87.68 14.62 87.68 15.26C87.68 15.81 86.96 16.07 86.7 16.51C86.57 16.73 86.52 16.99 86.37 17.28C86.03 17.93 85.5 18.85 84.8 19.04ZM81.6 15C81.6 16.53 82.26 15.24 81.6 18.06H81.32C81.32 17.32 81.35 15.98 81.1 15.51L81.05 15.42C80.82 15.08 80.38 15.43 80.77 13.75C81.67 13.75 82.02 13.88 82.02 14.59C82.02 15.06 81.9 14.87 81.6 15ZM76.34 13.9C76.34 13.21 77.14 13.43 77.54 13.93C77.86 14.31 77.26 13.87 78.3 14.57C78.84 14.93 79.6 15.41 79.66 16.11C78.89 16.05 79 15.64 78 14.85C77.3 14.3 77.78 14.6 77.15 14.56C76.71 14.54 76.34 14.36 76.34 13.89V13.9ZM85.9 14.17C86.04 14.47 85.93 17.09 84.93 17.37C84.93 16.54 85.5 15.14 85.76 14.03L85.21 13.88C85.22 13.1 85.67 12.79 86.31 12.64C86.63 13.25 86.88 14.09 85.9 14.17ZM78.42 12.92C78.42 12.58 78.52 12.53 78.84 12.5C79.24 12.47 79.3 12.65 79.41 12.9C79.64 13.45 79.23 13.15 79.71 14.25C80.28 15.53 79.9 15.3 80.91 16.81C80.04 16.74 80.01 16.33 79.74 15.62C79.46 14.92 79.24 14.55 79.24 13.62C78.57 13.62 78.41 13.61 78.41 12.92H78.42ZM73.42 13.34C72.46 13.34 73.28 11.21 74.05 12.44C74.81 13.67 74.15 12.6 75.47 13.93L77.31 15.98C77.46 15.4 77.37 15.68 77.86 15.42C79.02 16.03 78.15 15.77 78.59 16.49C78.77 16.79 79.43 17.25 79.72 17.44C80.15 17.72 80.31 17.76 80.35 18.34C79.49 18.14 79.05 17.55 78.52 16.97C77.82 16.17 78.62 16.82 77.63 16.62C76.83 16.46 76.09 15.1 75.07 14.05L74.94 13.91C74.29 13.29 74.38 13.14 74.02 13.15C73.55 13.15 73.91 13.34 73.42 13.34ZM87.28 17.64C87.7 15.84 88.48 16.1 89.69 13.66C90.12 12.8 89.23 13.42 90.06 12.24C90.32 11.87 90.15 12.32 90.33 11.81H90.88C90.94 12.45 91.08 12.57 90.58 13.04C90.56 13.07 90.46 13.14 90.43 13.16C90.07 13.5 90.12 13.63 89.9 14.26C89.81 14.5 89.88 14.38 89.78 14.53L87.95 17.07C87.72 17.43 87.75 17.52 87.28 17.64ZM84.38 16.25H84.1C84.1 14.28 84.93 12.05 84.93 10.29C84.93 9.59 84.78 9.65 84.83 9.08C84.85 8.73 84.93 8.38 84.93 7.78C86.4 7.48 85.92 9.12 85.56 9.82C85.24 10.46 85.48 10.97 85.22 12.24C85.07 12.94 85.02 13.54 84.89 14.27C84.77 14.92 84.52 15.61 84.37 16.25H84.38ZM85.06 9.59L85.02 9.55C85.02 9.55 85.05 9.61 85.06 9.59ZM79.66 7.93C79.66 6.91 81.32 7.32 81.32 8.9C81.32 9.3 80.85 8.7 81.36 9.82C81.73 10.65 82.16 12.89 82.16 13.76C81.14 13.49 81.7 12.58 81.19 10.56C81.11 10.26 80.99 9.66 80.81 9.42C80.61 9.16 80.75 9.34 80.5 9.17L80.4 9.12L80.24 9.02C79.9458 8.71607 79.7446 8.33443 79.66 7.92V7.93Z" fill="url(#paint0_linear)"/>
<defs>
<linearGradient id="paint0_linear" x1="82.63" y1="39.76" x2="82.63" y2="0.239997" gradientUnits="userSpaceOnUse">
<stop stop-color="#47A6F7"/>
<stop offset="1" stop-color="#FF00DE"/>
</linearGradient>
</defs>
</svg>
