<svg width="160" height="40" viewBox="0 0 160 40" fill="none" xmlns="http://www.w3.org/2000/svg">
<path fill-rule="evenodd" clip-rule="evenodd" d="M87.4578 33.8359H84.4545L80.0167 26.6022V33.8359H77V22.2037H80.0167L84.4411 29.4506V22.2037H87.4578V33.8359V33.8359ZM96.8833 31.6631H92.7269L92.0029 33.8359H88.7852L93.3705 22.2037H96.2129L100.852 33.8359H97.5939L96.8699 31.6631H96.8833ZM93.4644 29.5036H96.1458L94.8051 25.4628L93.4644 29.5036ZM111.39 22.217V29.8084C111.39 30.484 111.269 31.0935 111.042 31.6102C110.8 32.1401 110.465 32.5773 110.036 32.935C109.607 33.2795 109.097 33.5444 108.481 33.7299C107.877 33.9154 107.207 33.9949 106.47 33.9949C105.79 34.0039 105.112 33.9147 104.458 33.7299C103.887 33.5716 103.353 33.3013 102.89 32.935C102.461 32.5773 102.112 32.1401 101.871 31.6102C101.629 31.0802 101.509 30.484 101.509 29.8084V22.2037H104.552V29.8084C104.552 30.5238 104.713 31.0405 105.048 31.3584C105.384 31.6896 105.853 31.8486 106.47 31.8486C107.086 31.8486 107.569 31.6896 107.891 31.3584C108.213 31.0405 108.373 30.5238 108.373 29.8084V22.2037H111.39V22.217ZM123.591 32.4051C123.086 32.852 122.505 33.2064 121.875 33.4517C120.833 33.8492 119.72 34.0339 118.603 33.9949C117.772 33.9949 117.008 33.8756 116.324 33.6239C115.667 33.3826 115.071 33.001 114.58 32.5064C114.089 32.0118 113.714 31.4163 113.482 30.7622C113.214 30.0601 113.079 29.2519 113.079 28.351V27.7018C113.079 26.8009 113.214 25.9928 113.482 25.2906C113.703 24.6355 114.069 24.0374 114.554 23.54C115.038 23.0426 115.63 22.6585 116.284 22.4157C117.704 21.953 119.232 21.9253 120.668 22.3362C121.285 22.5349 121.808 22.7999 122.21 23.1576C122.626 23.5021 122.947 23.926 123.162 24.403C123.383 24.9083 123.523 25.4447 123.578 25.9928H120.668C120.631 25.7341 120.564 25.4807 120.467 25.2376C120.376 25.0164 120.237 24.8181 120.058 24.6576C119.879 24.497 119.666 24.3783 119.435 24.3102C119.142 24.2295 118.839 24.1937 118.536 24.2042C118.196 24.1888 117.856 24.2598 117.551 24.4106C117.246 24.5613 116.985 24.7867 116.793 25.0654C116.592 25.3569 116.431 25.7278 116.324 26.1518C116.217 26.589 116.15 27.1057 116.15 27.6886V28.351C116.15 29.5169 116.364 30.3913 116.793 30.9742C117.222 31.5572 117.893 31.8486 118.804 31.8486C119.194 31.8487 119.582 31.7951 119.957 31.6896C120.182 31.6169 120.391 31.5047 120.574 31.3584V29.5566H118.469V27.6091H123.591V32.3786V32.4051ZM135.899 33.8359H132.896V28.9869H128.444V33.8359H125.428V22.2037H128.444V26.8274H132.896V22.2037H135.899V33.8359ZM147.215 24.3765H143.461V33.8359H140.431V24.3765H136.73V22.2037H147.215V24.3765ZM153.423 27.2646L155.729 22.2037H159L154.964 29.6626V33.8359H151.881V29.6626L147.858 22.2037H151.103L153.423 27.2646ZM88.088 7.1799L90.8097 15.7782L93.518 7.16665H97.3927V19.5408H94.4431V16.6526L94.7247 10.7437L91.7884 19.5275H89.8443L86.8947 10.7172L87.1763 16.6393V19.5275H84.2266V7.16665H88.1014L88.088 7.1799ZM109.661 13.6054C109.661 14.5593 109.526 15.4072 109.258 16.1624C108.99 16.9176 108.642 17.5535 108.159 18.0834C107.69 18.6134 107.127 19.0108 106.483 19.289C105.826 19.5673 105.115 19.713 104.338 19.713C103.547 19.713 102.836 19.5805 102.179 19.289C101.528 19.0175 100.946 18.6056 100.476 18.0834C100.007 17.5535 99.6452 16.9176 99.377 16.1624C99.1089 15.4072 98.9748 14.5593 98.9748 13.6054V13.1152C98.9748 12.1613 99.1089 11.3134 99.377 10.5583C99.6452 9.81635 100.007 9.16717 100.476 8.63723C100.946 8.10729 101.509 7.70984 102.166 7.43162C102.843 7.14505 103.574 7.00069 104.311 7.00767C105.102 7.00767 105.813 7.14015 106.456 7.43162C107.127 7.70984 107.69 8.12054 108.159 8.63723C108.628 9.16717 108.99 9.81635 109.258 10.5583C109.526 11.3134 109.661 12.1613 109.661 13.1152V13.6054ZM106.671 13.0887C106.73 12.1243 106.521 11.1623 106.067 10.3065C105.665 9.65737 105.075 9.3394 104.324 9.3394C103.533 9.3394 102.943 9.65737 102.555 10.2933C102.117 11.1588 101.918 12.123 101.978 13.0887V13.6187C101.978 14.811 102.179 15.7517 102.568 16.4009C102.957 17.05 103.56 17.3813 104.338 17.3813C105.089 17.3813 105.665 17.0633 106.067 16.4141C106.47 15.7517 106.671 14.8243 106.671 13.6054V13.0887V13.0887ZM115.117 7.1799L117.826 15.7782L120.547 7.16665H124.409V19.5408H121.459V16.6526L121.754 10.7437L118.804 19.5408H116.86L113.911 10.7305L114.179 16.6526V19.5408H111.243V7.1799H115.104H115.117ZM132.641 16.2551C132.641 16.0564 132.614 15.8842 132.561 15.7252C132.497 15.5559 132.391 15.4054 132.252 15.288C132.091 15.1555 131.877 15.023 131.582 14.8773C131.225 14.7094 130.858 14.5634 130.482 14.4401C129.946 14.2679 129.437 14.0559 128.927 13.8306C128.431 13.6054 127.989 13.3405 127.613 13.0357C127.231 12.7332 126.912 12.3597 126.675 11.9361C126.439 11.4865 126.324 10.9849 126.339 10.4788C126.339 9.94883 126.46 9.47189 126.688 9.03469C126.929 8.61073 127.251 8.23978 127.667 7.94831C128.082 7.64359 128.578 7.41837 129.155 7.24614C130.371 6.90918 131.658 6.91836 132.869 7.27264C133.419 7.45811 133.901 7.70984 134.303 8.0543C134.715 8.3933 135.044 8.81927 135.267 9.3008C135.49 9.78232 135.6 10.3071 135.591 10.8365H132.641C132.641 10.6113 132.614 10.3993 132.547 10.2006C132.481 10.0104 132.371 9.83803 132.225 9.69711C132.091 9.56463 131.917 9.45864 131.702 9.37915C131.225 9.22356 130.711 9.21433 130.228 9.35265C130.013 9.4189 129.825 9.51163 129.691 9.61762C129.557 9.72115 129.448 9.85384 129.374 10.0055C129.299 10.1571 129.261 10.3235 129.262 10.492C129.262 10.6908 129.316 10.863 129.41 11.0087C129.517 11.1544 129.678 11.3002 129.866 11.4327C130.053 11.5652 130.281 11.6976 130.563 11.8036C130.831 11.9229 131.153 12.0421 131.501 12.1481C132.145 12.3601 132.721 12.5985 133.231 12.8503C133.74 13.102 134.169 13.3934 134.518 13.7247C134.864 14.0479 135.137 14.4385 135.322 14.8719C135.507 15.3052 135.598 15.7718 135.591 16.2419C135.591 16.7851 135.483 17.2885 135.269 17.7125C135.041 18.1497 134.733 18.5074 134.344 18.8121C133.955 19.1036 133.486 19.3288 132.923 19.4745C132.027 19.7087 131.093 19.7625 130.177 19.6328C129.26 19.503 128.379 19.1924 127.586 18.7194C126.924 18.2705 126.429 17.6187 126.179 16.8646C126.044 16.4671 125.964 16.0167 125.964 15.5397H128.914C128.914 15.8974 128.967 16.2021 129.048 16.4406C129.128 16.6791 129.289 16.8911 129.477 17.0368C129.664 17.1958 129.879 17.3018 130.147 17.368C130.415 17.4342 130.724 17.474 131.072 17.474C131.34 17.474 131.582 17.4342 131.783 17.368C131.984 17.3018 132.145 17.2223 132.279 17.103C132.413 16.997 132.493 16.8646 132.547 16.7188C132.608 16.5715 132.64 16.4142 132.641 16.2551V16.2551Z" fill="#414143"/>
<path d="M137.013 21.4712C135.987 21.2986 135.46 22.1353 135.744 22.8391C136.014 23.4633 137.432 24.3532 139.107 24.3532C140.322 24.3532 141.659 22.6001 142.47 18.8814C143.199 15.5612 143.455 12.241 143.726 10.5144C143.78 10.023 142.929 9.93008 142.794 9.93008L142.821 9.62462C142.821 8.2434 141.808 7.95122 140.93 7.95122C138.161 7.95122 136.338 11.3246 136.338 15.2557C136.338 17.9119 137.472 19.5588 139.242 19.5588C140.093 19.5588 140.822 18.3768 141.187 17.8588C140.754 20.3423 139.606 22.6399 138.62 23.0782C138.296 22.879 137.27 22.0954 137.013 21.4712V21.4712ZM134.663 15.2557C134.663 10.3684 137.108 6.30439 140.93 6.30439C142.632 6.30439 144.036 7.08796 144.387 8.72152C145.063 9.11994 145.495 9.78399 145.373 10.7668C145.292 11.2847 144.968 13.9808 144.914 14.3128C144.684 16.1588 144.428 17.7127 144.104 19.2267C143.185 23.4102 141.497 26 139.107 26C136.986 26 134.798 24.8977 134.204 23.4501C134.053 23.0911 133.984 22.7036 134.003 22.3154C134.022 21.9272 134.129 21.548 134.315 21.2051C134.501 20.8622 134.762 20.5641 135.079 20.3323C135.396 20.1004 135.761 19.9406 136.149 19.8642C135.105 18.5542 134.578 16.9177 134.663 15.2557V15.2557ZM138.04 16.212C138.04 17.5533 138.553 18.1908 139.12 18.1908C140.295 18.1908 141.524 14.8839 141.686 12.7191C141.686 12.7191 141.389 12.7324 141.078 12.3871C141.322 11.8558 141.43 10.7004 141.43 10.1691C141.43 9.71759 141.187 9.27932 140.781 9.27932C139.161 9.27932 138.053 13.9276 138.053 16.212H138.04ZM143.064 10.9527L143.469 10.9262L143.334 12.8253C143.104 16.1057 141.497 19.8377 139.12 19.8377C137.351 19.8377 136.378 18.2439 136.378 16.212C136.378 12.3738 137.959 7.63248 140.781 7.63248C142.267 7.63248 143.104 8.86761 143.104 10.1691L143.064 10.966V10.9527ZM144.306 16.8362C144.306 19.5588 145.887 21.0861 147.575 21.0861C150.006 21.0861 151.208 17.8986 151.208 16.0127C151.208 15.4018 150.924 14.9768 150.573 14.9768C150.262 14.9768 150.262 15.2159 150.262 15.2159C150.262 16.6502 148.898 19.3595 147.21 19.3595C146.089 19.3595 145.684 18.6025 145.684 17.5799C145.684 15.8135 146.089 14.6581 146.089 14.6581C146.089 14.6581 146.413 15.5878 147.359 15.5878C149.101 15.5878 149.857 13.0644 149.857 10.2754C149.857 8.28325 148.898 7.6192 148.061 7.6192C146.13 7.6192 144.306 13.2105 144.306 16.8362V16.8362ZM147.359 17.2346C147.356 17.3762 147.356 17.5179 147.359 17.6596C147.48 17.5799 147.629 17.4072 147.777 17.208L147.372 17.2346H147.359ZM152.869 16.0127C152.869 19.2666 150.843 22.7462 147.575 22.7462C144.739 22.7462 142.632 20.2228 142.632 16.8362C142.632 11.9753 144.901 5.98565 148.061 5.98565C150.1 5.98565 151.532 7.68561 151.532 10.2754C151.532 11.4175 151.424 12.48 151.208 13.4097C152.288 13.7284 152.869 14.844 152.869 16.0127ZM146.346 13.7284C146.346 13.7284 146.454 14.2729 146.886 14.2729C147.669 14.2729 148.331 11.8293 148.331 9.82383C148.331 8.90745 148.169 8.8012 148.061 8.8012C147.98 8.8012 147.858 8.89417 147.737 9.19963C147.197 10.3684 146.589 12.148 146.346 13.7284V13.7284ZM144.712 14.0604L144.657 13.7683L144.698 13.4894C144.941 11.8957 145.535 10.023 146.197 8.54887C146.562 7.72545 147.075 7.15437 148.061 7.15437C148.898 7.15437 149.533 7.68561 149.803 8.40278C149.938 8.78792 149.992 9.22619 149.992 9.82383C149.992 12.9316 149.087 15.9331 146.886 15.9331C146.035 15.9331 145.4 15.4815 145.022 14.8573C144.847 14.5651 144.752 14.2995 144.712 14.0604V14.0604ZM151.762 10.3684L152.761 10.1559C152.207 12.48 151.762 15.0698 151.762 16.3846C151.762 18.6158 153.018 20.1697 154.517 20.1697C155.921 20.1697 158.001 18.4697 158.001 16.9823C158.001 15.694 157.218 15.8799 157.218 15.8799C157.123 17.0354 155.354 18.576 154.057 18.576C153.585 18.576 153.342 18.2307 153.342 17.6596C153.342 15.694 154.017 12.6128 154.76 9.82383C155.881 9.65118 157.11 9.50509 158.001 9.47853C158.298 9.47853 158.339 9.30588 158.339 9.14651C158.339 9.0137 157.988 8.54887 157.88 8.42934C157.609 8.16372 157.407 8.41606 157.285 8.11059C157.15 7.83169 156.745 7.91138 156.245 7.95122L155.219 8.08403L155.651 6.49032C155.719 6.23799 154.571 5.42785 154.206 5.68019C153.963 5.85284 153.571 6.95515 153.166 8.42934C152.086 8.65511 151.059 8.90745 150.816 9.10666C150.519 9.37228 151.194 10.5012 151.762 10.3684V10.3684ZM149.763 7.84498C150.168 7.49967 150.843 7.26062 151.829 7.03484C152.261 5.56066 152.639 4.77708 153.247 4.32553C154.638 3.35602 157.123 4.71068 157.299 6.30439C157.691 6.37079 158.042 6.51688 158.325 6.7825C158.582 6.87547 158.811 7.03484 159.055 7.2739C159.514 7.72545 160 8.44262 160 9.14651C160 10.1824 159.298 11.1254 158.042 11.1254C157.542 11.1254 156.867 11.2051 156.097 11.298C155.597 13.3167 155.259 15.0167 155.111 16.3182C155.354 16.1057 155.543 15.8799 155.557 15.7604L155.638 14.5651L156.813 14.2862L157.015 14.2464C157.461 14.18 157.961 14.2464 158.447 14.5253C159.271 15.0034 159.662 15.8932 159.662 16.9955C159.662 19.3728 156.867 21.8165 154.517 21.8165C151.924 21.8165 150.1 19.3861 150.1 16.3846C150.1 15.3487 150.33 13.6355 150.695 11.7761C149.263 11.0722 148.385 9.00042 149.763 7.83169V7.84498ZM155.016 17.6596V17.633V17.6596Z" fill="white"/>
<path fill-rule="evenodd" clip-rule="evenodd" d="M137.306 21.0757C137.568 21.7091 138.551 22.5042 138.879 22.6928C139.822 22.2616 140.936 19.9303 141.369 17.4103C141.002 17.9493 140.294 19.1352 139.468 19.1352C137.765 19.1352 136.651 17.4507 136.651 14.769C136.651 10.7802 138.42 7.35729 141.107 7.35729C141.958 7.35729 142.941 7.65376 142.941 9.05525L142.915 9.3652C143.046 9.3652 143.872 9.45953 143.819 9.95814C143.557 11.71 143.295 15.079 142.601 18.4479C141.814 22.2212 140.504 24 139.324 24C137.712 24 136.323 23.0971 136.074 22.4638C135.799 21.7495 136.31 20.9005 137.306 21.0757ZM138.315 15.7393C138.315 17.1004 138.8 17.7472 139.364 17.7472C140.491 17.7472 141.683 14.3917 141.827 12.1951C141.827 12.1951 141.565 12.2086 141.251 11.8582C141.487 11.3192 141.592 10.1468 141.592 9.60776C141.592 9.14959 141.356 8.70488 140.962 8.70488C139.39 8.70488 138.315 13.4214 138.315 15.7393V15.7393ZM144.383 16.3727C144.383 12.6937 146.152 7.03387 148.026 7.03387C148.839 7.03387 149.77 7.69419 149.77 9.72905C149.77 12.5455 149.036 15.0924 147.345 15.0924C146.428 15.0924 146.113 14.1761 146.113 14.1761C146.113 14.1761 145.72 15.335 145.72 17.1273C145.72 18.1649 146.113 18.9331 147.201 18.9331C148.839 18.9331 150.163 16.184 150.163 14.7286C150.163 14.7286 150.163 14.486 150.464 14.486C150.805 14.486 151.08 14.9173 151.08 15.5371C151.08 17.4507 149.927 20.6984 147.555 20.6984C145.916 20.6984 144.383 19.1352 144.383 16.3861V16.3727ZM146.362 13.2193C146.362 13.2193 146.467 13.7718 146.886 13.7718C147.646 13.7718 148.289 11.2922 148.289 9.25739C148.289 8.32756 148.131 8.21975 148.026 8.21975C147.948 8.21975 147.83 8.31408 147.712 8.62403C147.188 9.8099 146.598 11.6157 146.362 13.2193V13.2193ZM151.617 9.8099C151.067 9.94466 150.412 8.79921 150.7 8.52969C150.936 8.32756 151.919 8.07151 152.98 7.8559C153.374 6.3466 153.754 5.22811 153.99 5.05292C154.357 4.7834 155.457 5.61891 155.392 5.86147L154.973 7.49205C155.366 7.42467 155.72 7.38425 155.969 7.35729C156.44 7.31687 156.847 7.22253 156.978 7.519C157.109 7.82895 157.292 7.58638 157.554 7.84243C157.659 7.96371 158 8.44884 158 8.57012C158 8.73183 157.961 8.90702 157.672 8.90702C156.807 8.93397 155.615 9.08221 154.527 9.25739C153.819 12.0873 153.151 15.2137 153.151 17.2082C153.151 17.7876 153.387 18.1515 153.845 18.1515C155.104 18.1515 156.82 16.5748 156.912 15.4024C156.912 15.4024 157.672 15.2137 157.672 16.5344C157.672 18.0302 155.654 19.7551 154.291 19.7551C152.849 19.7551 151.617 18.1784 151.617 15.9145C151.617 14.5938 152.05 11.9526 152.587 9.58081L151.617 9.8099V9.8099Z" fill="#82CCD5"/>
<path fill-rule="evenodd" clip-rule="evenodd" d="M46.3142 25H45.2834L45.072 25.0135H44.6756L44.4641 25.0405H44.2659L44.0545 25.054L43.8563 25.0674L43.4598 25.1079L43.0369 25.1484L42.6405 25.1753L42.2441 25.2293L41.8344 25.2832L41.438 25.3372L41.0283 25.3911L40.6319 25.4586L40.2354 25.526L39.839 25.5934L39.4426 25.6744L39.0329 25.7553L38.6365 25.8227L38.24 25.9171L37.8568 25.9981L37.4604 26.0925L37.0639 26.1869L36.6675 26.2813L36.271 26.3757L35.5046 26.578L34.7117 26.7669L33.9188 26.9692L33.1392 27.1715L32.3463 27.3603L31.9498 27.4547L31.5666 27.5491L31.1702 27.6435L30.7737 27.738L30.3773 27.8324L29.9809 27.9133L29.5844 27.9942L29.188 28.0751L28.7915 28.1561L28.3819 28.237L27.9854 28.3044L27.589 28.3719L27.1926 28.4393L26.7829 28.5067L26.3865 28.5607L25.99 28.6146L25.5804 28.6686L25.1707 28.7091L24.7743 28.7495L24.5761 28.763L24.3646 28.79L24.1664 28.8035L23.9682 28.817L23.7567 28.8304H23.5585L23.3603 28.8574H22.9506L22.7524 28.8709H22.356L21.9463 28.8844H21.127L20.7306 28.8709L20.3341 28.8574L19.9113 28.8304L19.5148 28.8035L19.1052 28.79L18.6955 28.763L18.2991 28.7225L17.8762 28.6956L17.4798 28.6551L17.0701 28.6146L16.6605 28.5742L16.2508 28.5202L15.8544 28.4798L15.4447 28.4393L14.6254 28.3449L13.8061 28.237L13 28.1426L13.74 28.3854L14.4933 28.6416L14.8633 28.763L15.2597 28.8844L15.6165 28.9923L15.9997 29.1272L16.383 29.2351L16.753 29.343L17.1494 29.4509L17.5194 29.5588L17.8894 29.6667L18.2859 29.7611L18.6559 29.8555L19.0523 29.9499L19.4223 30.0308L19.6205 30.0713L19.8188 30.1118L20.0038 30.1522L20.202 30.1792L20.387 30.2197L20.5984 30.2601L20.7834 30.2871L20.9817 30.3141L21.1799 30.341L21.3649 30.3815L21.5631 30.395L21.7613 30.422L21.9595 30.4489L22.1578 30.4624L22.356 30.4894L22.5542 30.5029H22.7524L22.9506 30.5299H23.1489L23.3471 30.5568H23.5453L23.7435 30.5703H24.14L24.3382 30.5838H25.5407L25.7522 30.5703H25.9504L26.1486 30.5568L26.3468 30.5434H26.545L26.9415 30.5029L27.3511 30.4759L27.7476 30.4355L28.144 30.3815L28.5405 30.341L28.9369 30.3006L29.3465 30.2331L29.743 30.1792L30.1394 30.1118L30.5359 30.0443L30.9323 29.9769L31.3287 29.896L31.6988 29.815L32.0952 29.7476L32.4784 29.6532L32.8616 29.5723L33.2581 29.4913L33.6281 29.3969L34.0113 29.3025L34.7778 29.1137L35.5442 28.9249L36.3107 28.736L37.0771 28.5472L37.8436 28.3584L38.2268 28.264L38.6232 28.1696L38.9933 28.0886L39.3897 27.9942L39.7729 27.9133L40.1694 27.8324L40.5526 27.7514L40.949 27.6705L41.3455 27.6031L41.7419 27.5356L42.1251 27.4682L42.5216 27.4008L42.918 27.3468L43.3145 27.2929L43.7109 27.2524L43.9223 27.2254L44.1206 27.2119L44.3188 27.185L44.517 27.1715L44.7152 27.1445H44.9134L45.1117 27.1175H45.3099L45.5081 27.104L45.7063 27.0906L45.9177 27.0771H47.7017L47.9132 27.0906L48.1114 27.104L48.3096 27.1175H48.4946L48.6928 27.1445L48.891 27.1715L49.0893 27.185L49.2875 27.2119L49.4857 27.2389L49.6839 27.2659L49.8821 27.2929L50.0804 27.3198L50.2786 27.3468L50.4768 27.3873L50.6618 27.4277L50.86 27.4547L51.0583 27.4952L51.2433 27.5491L51.4415 27.5896L51.6397 27.6301L51.8247 27.6705L52.0229 27.7245L52.2211 27.7784L52.4061 27.8189L52.6044 27.8728L52.7894 27.9268L52.9876 27.9807L53.1726 28.0347L53.3576 28.0886L53.5426 28.1561L53.7408 28.21L53.9258 28.2775L54.1108 28.3449L54.2958 28.3988L54.6659 28.5337L55.0359 28.6686L55.4059 28.8035L55.7759 28.9518L56.1327 29.1002L56.4895 29.2486L56.8463 29.4104L57.2031 29.5588L57.5599 29.7341L57.9035 29.8825L58.2602 30.0578L58.6038 30.2197L58.9474 30.395L59.291 30.5703L59.6346 30.7457L59.9649 30.921L60.3085 31.0963L60.6521 31.2717L61.3128 31.6358L62 32L61.4582 31.4605L61.1939 31.1908L60.9032 30.921L60.6389 30.6647L60.3614 30.395L60.0707 30.1387L59.8064 29.8825L59.5024 29.6262L59.2249 29.3834L59.0796 29.2486L58.9474 29.1272L58.7888 29.0193L58.6435 28.8844L58.4849 28.7765L58.3527 28.6551L58.1942 28.5337L58.0356 28.4258L57.8902 28.3044L57.7317 28.1965L57.5731 28.0886L57.4145 27.9807L57.2559 27.8728L57.0974 27.7784L56.9388 27.6705L56.7802 27.5626L56.6084 27.4682L56.4498 27.3738L56.278 27.2794L56.1195 27.1715L55.9345 27.0906L55.7759 26.9961L55.5909 26.9152L55.4191 26.8208L55.2473 26.7399L55.0623 26.659L54.8773 26.578L54.7055 26.5106L54.5205 26.4297L54.3355 26.3622L54.1505 26.2948L53.9655 26.2274L53.7673 26.1599L53.5823 26.0925L53.384 26.025L53.199 25.9711L53.0008 25.9171L52.8158 25.8632L52.6176 25.7958L52.4194 25.7553L52.2211 25.7013L52.0229 25.6609L51.8247 25.6069L51.6133 25.5665L51.4283 25.526L51.2168 25.4721L51.0186 25.4451L50.8204 25.4046L50.609 25.3642L50.4107 25.3372L50.2125 25.2967L50.0011 25.2698L49.8029 25.2428L49.5914 25.2158L49.3932 25.1888L49.1818 25.1619L48.9703 25.1484L48.7721 25.1214L48.5607 25.1079L48.3625 25.0809L48.151 25.0674H47.9528L47.7414 25.0405H47.5432L47.3317 25.027L47.1203 25.0135H46.7238L46.5124 25H46.3142Z" fill="#D0616F"/>
<path fill-rule="evenodd" clip-rule="evenodd" d="M6.36152 20.4247L6.22762 20.2877L6.12051 20.1507L6 20.0274L6.49542 20.3699L6.97745 20.6986L7.48626 21.0137L7.99507 21.3288L8.50388 21.6164L9.03946 21.8904L9.54827 22.1644L10.0839 22.4384L10.6195 22.6849L11.1818 22.9315L11.7174 23.1507L12.2798 23.3699L12.8288 23.5753L13.4045 23.7534L13.9669 23.9315L14.5426 24.0959L15.1184 24.2466L15.7075 24.3836L16.2833 24.5205L16.8724 24.6301L17.4616 24.7397L18.0507 24.8082L18.6399 24.8904L19.229 24.9589L19.8316 25L20.4207 25.0411L21.0233 25.0548H22.8041L23.4066 25.0137L23.9958 24.9726L24.5983 24.9178L25.5356 24.8082L26.4461 24.6986L27.37 24.5753L28.3073 24.4384L29.2178 24.3014L30.1283 24.1233L31.0522 23.9452L31.9626 23.7671L32.8732 23.5616L33.7837 23.3562L34.6808 23.137L35.5913 22.8904L36.4884 22.6438L37.3855 22.3836L38.2558 22.1233L39.1395 21.8767L40.0233 21.6575L40.9204 21.4384L41.8041 21.2329L42.7012 21.0411L43.6117 20.863L44.5088 20.6986L45.4059 20.5616L46.3164 20.4247L47.2269 20.3151L48.1374 20.1918L49.0479 20.1096L49.9584 20.0411L50.3735 20H51.2037L51.6321 20.0137L52.0338 20.0411L52.4489 20.0959L52.864 20.137L53.2791 20.2192L53.6808 20.3014L54.0825 20.3836L54.4841 20.4932L54.8858 20.6301L55.2875 20.7534L55.6624 20.8904L56.0641 21.0548L56.4257 21.2192L56.8006 21.411L57.1755 21.6712L57.5504 21.9315L57.8985 22.2055L58.2467 22.5069L58.5948 22.7945L58.9161 23.1096L59.2375 23.4247L59.5588 23.7534L59.8534 24.0959L60.148 24.4384L60.4158 24.7945L60.697 25.1507L60.9648 25.5205L61.2058 25.9041L61.4334 26.2877L61.661 26.6712L61.8753 27.0822L62.0761 27.4795L62.2636 27.8904L62.4376 28.3014L62.5983 28.7123L62.7322 29.1507L62.8795 29.5616L63 30L62.4778 29.5068L61.969 29.0274L61.4334 28.5479L60.8978 28.0822L60.3355 27.6301L59.7731 27.1781L59.4383 26.8904L59.0902 26.6027L58.7421 26.3288L58.3805 26.0548L58.019 25.8082L57.6441 25.5616L57.2692 25.3288L56.8675 25.1096L56.4792 24.8904L56.0775 24.6986L55.6758 24.5068L55.2607 24.3288L54.8457 24.1644L54.4172 24.0274L53.9887 23.8767L53.5603 23.7397L53.1318 23.6301L52.6899 23.5342L52.2481 23.4384L51.8062 23.3562L51.3643 23.3014L50.9225 23.2466L50.4672 23.2055L50.0254 23.1781L49.5701 23.1644L48.914 23.137H47.5884L46.9323 23.1507L46.2763 23.1781L45.6068 23.2329L44.9641 23.2877L44.308 23.3699L43.6519 23.4521L43.0092 23.5479L42.3531 23.6712L41.7104 23.8082L41.0677 23.9452L40.4249 24.0822L39.7956 24.2603L39.1529 24.4521L38.5236 24.6438L38.2826 24.7397L38.0282 24.8082L37.7738 24.8904L37.5194 24.9726L37.2784 25.0548L37.0106 25.137L36.7696 25.2055L36.5152 25.2877L36.2474 25.3562L36.0063 25.4247L35.7519 25.4932L35.4975 25.5753L35.2297 25.6301L34.9887 25.6986L34.7209 25.7671L34.4665 25.8356L34.2121 25.8904L33.9443 25.9452L33.6899 26L33.4355 26.0548L33.1677 26.1233L32.9133 26.1644L32.6455 26.2192L32.4045 26.274L32.1367 26.3151L31.8689 26.3699L31.6145 26.411L31.3467 26.4521L31.0923 26.4932L30.8245 26.5342L30.5567 26.5753L30.3157 26.6027L30.0479 26.6438L29.7801 26.6712L29.5123 26.7123L29.2445 26.7397L28.9901 26.7671L28.7223 26.7945L28.4545 26.8219L28.2001 26.8493L27.9323 26.863L27.6646 26.8904L27.3968 26.9041L27.1424 26.9315H26.8746L26.6068 26.9589H26.339L26.0846 26.9726L25.8168 26.9863H25.549L25.2812 27H23.179L22.9112 26.9863L22.6434 26.9726L22.389 26.9589H22.1212L21.8534 26.9315L21.5856 26.9178L21.3312 26.9041L21.0634 26.8767L20.7956 26.863L20.5412 26.8356L20.2734 26.8082L20.0056 26.7808L19.7512 26.7534L19.4834 26.726L19.2156 26.6849L18.9612 26.6575L18.6934 26.6301L18.439 26.589L18.1712 26.5479L17.9035 26.5068L17.649 26.4658L17.3813 26.4247L17.1268 26.3836L16.8591 26.3425L16.6984 26.3014L16.5243 26.2603L16.3502 26.2192L16.1762 26.1781L16.0021 26.137L15.828 26.0959L15.654 26.0548L15.4799 26L15.3058 25.9589L15.1452 25.9041L14.9711 25.8493L14.797 25.7945L14.6364 25.7397L14.4623 25.6849L14.3016 25.6164L14.1276 25.5753L13.9669 25.5068L13.7928 25.4384L13.6321 25.3836L13.4581 25.3151L13.2974 25.2466L13.1367 25.1781L12.976 25.1096L12.8154 25.0274L12.6413 24.9589L12.4806 24.8767L12.3199 24.8082L12.1593 24.7397L11.9986 24.6575L11.8379 24.5753L11.6772 24.4932L11.53 24.411L11.3693 24.3288L11.222 24.2329L11.0613 24.1507L10.914 24.0685L10.7533 23.9726L10.6061 23.8904L10.4588 23.7808L10.2981 23.6986L10.1508 23.6027L10.0169 23.5069L9.85624 23.411L9.70895 23.3014L9.57505 23.2055L9.41438 23.1096L9.28048 23L9.13319 22.8904L8.9993 22.7945L8.85201 22.6849L8.71811 22.5753L8.57082 22.4658L8.43693 22.3562L8.30303 22.2466L8.16913 22.1233L8.03524 22.0137L7.90134 21.9041L7.76744 21.7808L7.63354 21.6712L7.49965 21.5479L7.36575 21.4247L7.23185 21.3014L7.11135 21.1781L6.97745 21.0548L6.85694 20.9315L6.72304 20.7945L6.61593 20.6712L6.48203 20.5479L6.36152 20.4247Z" fill="#D0616F"/>
<path fill-rule="evenodd" clip-rule="evenodd" d="M51.4324 14H50.6622L50.4054 14.0139L50.1487 14.0277L49.8784 14.0554H49.6351L49.0946 14.1247L48.5541 14.1801L48.0135 14.2494L47.473 14.3325L46.9054 14.4156L46.3378 14.5126L45.7703 14.6234L45.2027 14.7481L44.6216 14.8728L44.0405 15.0113L43.4459 15.1499L42.8514 15.2884L42.2568 15.427L41.6622 15.5932L41.0541 15.7594L40.4459 15.9257L39.8243 16.0919L39.2162 16.2582L38.6081 16.4383L37.3649 16.7985L36.1216 17.1587L34.8784 17.5327L33.6216 17.8791L32.3649 18.2393L31.1216 18.5856L30.5 18.7519L29.8784 18.9181L29.2568 19.0567L28.6351 19.2229L28.0135 19.3615L27.4054 19.5L26.7973 19.6385L26.1757 19.7771L25.5811 19.8879L24.973 19.9987L24.3784 20.0957L23.7703 20.1927L23.1892 20.2758L22.5946 20.3451L22.0135 20.4144L21.4324 20.4559L20.8649 20.4975L20.2973 20.539L19.7297 20.5529H18.0541L17.5 20.539L16.9595 20.4975L16.4189 20.4559L15.8784 20.4144L15.3378 20.3589L14.7973 20.2758L14.2838 20.1927L13.7432 20.1096L13.2297 20.0126L12.7027 19.8879L12.1892 19.7771L11.6757 19.6385L11.1757 19.5L10.6622 19.3615L10.1486 19.1952L9.67568 19.0151L9.16216 18.835L8.67568 18.6549L8.17568 18.4471L7.67568 18.2393L7.18919 18.0176L6.7027 17.796L6.21622 17.5605L5.72973 17.3249L5.25676 17.0894L4.77027 16.8401L4.28378 16.5907L3.81081 16.3275L3.32432 16.0642L2.85135 15.801L1.90541 15.2607L0.959459 14.7065L0 14.1524L1.82432 15.4547L2.74324 16.0781L3.66216 16.7015L4.58108 17.3111L5.04054 17.6159L5.51351 17.9068L5.97297 18.1977L6.43243 18.4887L6.90541 18.7657L7.36486 19.0428L7.82432 19.3199L8.2973 19.597L8.77027 19.8463L9.24324 20.0957L9.71622 20.3451L10.1892 20.5945L10.6622 20.8161L11.1486 21.0378L11.6216 21.2594L12.0946 21.4534L12.5811 21.6612L13.0676 21.8413L13.5541 22.0214L14.0541 22.1877L14.5405 22.3401L15.027 22.4786L15.527 22.6171L16.027 22.7418L16.527 22.8526L17.027 22.9496L17.5405 23.0327L18.0405 23.102L18.5541 23.1713L19.0676 23.2128L19.5946 23.2406L20.1081 23.2683H22.1892L22.7297 23.2267L23.2568 23.199L23.7973 23.1436L24.3108 23.0882L24.8514 23.0327L25.3919 22.9635L25.9189 22.8804L26.4595 22.8111L26.973 22.7141L27.5135 22.6171L28.0541 22.5202L28.5946 22.4093L29.1216 22.2985L29.6622 22.1877L30.2027 22.063L30.7297 21.9383L31.7973 21.6889L32.8649 21.4118L33.9189 21.1348L35 20.8715L36.0405 20.5945L37.0811 20.3174L38.1216 20.0542L39.1486 19.8048L40.1757 19.5554L41.2027 19.306L42.2432 19.0844L42.7568 18.9736L43.2703 18.8627L43.7838 18.7657L44.3243 18.6688L44.8378 18.5718L45.3784 18.4748L45.9054 18.3917L46.4459 18.3086L46.9865 18.2254L47.527 18.1423L48.0811 18.073L48.6351 18.0038L49.2027 17.9622L49.7432 17.9068L50.3108 17.8652L50.8649 17.8375H52.2432L52.5135 17.8514H52.7838L53.0541 17.8929L53.3243 17.9068L53.5946 17.9345L53.8649 17.9761L54.1216 18.0176L54.3919 18.0592L54.6351 18.1008L54.8919 18.1562L55.1486 18.2254L55.3919 18.2947L55.6351 18.364L55.8784 18.4471L56.1216 18.5302L56.3514 18.6272L56.5946 18.7242L56.8243 18.835L57.0405 18.9458L57.2703 19.0705L57.4865 19.1952L57.7027 19.3338L57.9054 19.4723L58.1216 19.6108L58.3243 19.7494L58.527 19.9156L58.7297 20.0819L58.9189 20.2481L59.1216 20.4144L59.3243 20.5945L59.5135 20.7746L59.6892 20.9685L59.8784 21.1625L60.0676 21.3426L60.2432 21.5504L60.4324 21.7443L60.6081 21.9521L60.9595 22.3678L61.3108 22.7834L61.6486 23.2128L61.9865 23.67L62.3243 24.0995L63 25L62.6081 23.9194L62.4189 23.3652L62.2162 22.8388L62.0135 22.2985L61.8243 21.772L61.6081 21.2594L61.3919 20.7469L61.2838 20.4975L61.1757 20.262L61.0676 20.0126L60.9324 19.7771L60.8243 19.5416L60.7027 19.306L60.5811 19.0844L60.4595 18.8627L60.3243 18.6411L60.2162 18.4194L60.0811 18.2116L59.9459 18.0038L59.8108 17.8098L59.6757 17.6159L59.527 17.4219L59.3784 17.2418L59.2432 17.0617L59.0811 16.8816L58.9189 16.7154L58.7703 16.563L58.5946 16.4106L58.4324 16.2582L58.2568 16.1196L58.0946 15.9811L57.9189 15.8426L57.7432 15.704L57.5676 15.5932L57.3784 15.4547L57.1892 15.3577L57 15.2469L56.8108 15.136L56.6216 15.039L56.4189 14.9559L56.2297 14.8589L56.0135 14.7758L55.8108 14.7065L55.6081 14.6234L55.3919 14.5542L55.1892 14.4849L54.9595 14.4295L54.7568 14.3741L54.527 14.3186L54.3108 14.2632L54.0811 14.2355L53.8514 14.194L53.6216 14.1524L53.3919 14.1247L53.1622 14.097L52.9189 14.0693L52.6757 14.0416H52.4324L52.1892 14.0139H51.9459L51.7027 14H51.4324Z" fill="#D0616F"/>
<path fill-rule="evenodd" clip-rule="evenodd" d="M62.4708 11.7857L58.8473 10.2054L61.1959 13.125L58.6057 15.5893L62.2695 14.7857L64.1752 18L64.2155 14.4241L68 14.1696L64.3497 12.5893L64.8194 8.98661L62.4708 11.7857ZM55.6801 11.558L53.3181 9.14732L50.2851 10.6205L52.0297 7.91518L49.3457 5.86607L52.8618 6.46875L54.3246 3.52232L54.6736 6.77679L58.2031 7.37946L54.9554 8.41071L55.6801 11.558ZM43.5883 3L42.6489 5.77232L39.4683 5.625L42.0718 7.125L40.8371 9.70982L43.3468 8.04911L45.6953 9.91071L44.7022 7.23214L47.4534 5.93304L44.2728 5.8125L43.5883 3ZM37.1465 11.3438L34.7845 10.2455L32.9862 12.1607L33.5096 9.70982L31 8.97321L33.7109 8.4375L33.9659 5.89286L35.1201 8.15625L37.8444 7.62054L35.7642 9.26786L37.1465 11.3438Z" fill="#82CBD5"/>
<path fill-rule="evenodd" clip-rule="evenodd" d="M79.9039 16.1179C79.7132 15.8798 79.4543 15.721 79.1955 15.5887C78.3006 15.1319 77.3543 14.7768 76.3756 14.5305C76.1031 14.4643 75.8034 14.4379 75.5174 14.4908C75.3539 14.5173 75.1904 14.5569 75.0542 14.6363C74.6455 14.8612 74.2368 15.1258 73.8281 15.3374C73.5284 15.4961 73.1879 15.5491 72.8337 15.5226L72.7928 15.4829C72.9018 15.1258 73.1197 14.8083 73.3105 14.4908C73.5148 14.1733 73.76 13.8691 73.9916 13.5384C73.8554 13.3664 73.6647 13.2473 73.4467 13.2473C72.7147 14.1951 71.7867 14.9836 70.7221 15.5623C70.6054 15.6192 70.503 15.7005 70.4224 15.8004C70.0955 16.2898 69.8639 16.8057 69.8094 17.401C69.7822 17.6524 69.7277 17.8905 69.6732 18.1418C69.6596 18.2741 69.6323 18.4196 69.4688 18.4857L69.6459 18.6974L69.4007 18.8826L68.9648 19.1868L67.4527 20.3509C67.044 20.6552 66.6353 20.9462 66.2266 21.2769C65.382 21.9383 64.5919 22.6527 63.8018 23.3934C63.2841 23.8961 62.8073 24.4252 62.4395 25.0602C62.2488 25.4174 62.0853 25.801 61.8946 26.1714L61.772 26.4227L61.5813 26.2375L59.497 23.9623C59.0338 23.4728 58.5706 22.9701 58.1756 22.4278C57.5217 21.515 57.004 20.5229 56.4591 19.5572L56.5272 19.2927L56.1186 19.0281L55.9278 18.6577C55.7235 18.2609 55.5055 17.8905 55.2876 17.5068C55.2058 17.3613 55.1105 17.2291 55.0424 17.0703C54.8102 16.5806 54.5272 16.1152 54.1977 15.6813C53.9253 15.3242 53.7891 14.8876 53.7209 14.4511C53.7209 14.3982 53.7209 14.2924 53.7618 14.2791C53.9253 14.1865 53.9117 14.0146 53.9525 13.8823C53.9934 13.75 53.9525 13.6442 53.8436 13.5913C53.7907 13.5617 53.7467 13.5193 53.7156 13.4683C53.6846 13.4174 53.6677 13.3595 53.6665 13.3003C53.6392 12.9431 53.5439 12.5859 53.6392 12.242C53.6665 12.1229 53.6256 12.0436 53.5439 11.9774L53.4212 11.8716C53.4349 11.6732 53.3668 11.5409 53.1897 11.4747C52.9989 11.3954 52.89 11.5012 52.781 11.607C52.6311 11.779 52.4813 11.951 52.3723 12.1362C52.0454 12.6388 51.7593 13.1547 51.4596 13.6574C51.1871 14.1204 51.0509 14.6231 50.9555 15.1522C50.913 15.3657 50.9367 15.5867 51.0236 15.7872L51.2416 16.3163C51.4596 16.8058 51.5686 17.3084 51.6367 17.8243C51.6639 18.1154 51.6367 18.4064 51.5549 18.6974C51.5325 18.822 51.4648 18.9346 51.3642 19.0149C51.2144 19.1207 51.0509 19.081 50.8874 18.909C50.7784 18.79 50.6558 18.6709 50.5332 18.5783L49.7295 17.9169C49.6477 17.864 49.5933 17.7846 49.5115 17.7053C49.457 17.6391 49.3753 17.6127 49.3208 17.692C49.1982 17.8243 49.0892 17.9566 49.1165 18.155C49.1437 18.155 49.1573 18.1815 49.1709 18.1947C50.0679 18.9393 50.7803 19.8708 51.2552 20.9197C51.337 21.0785 51.4187 21.224 51.5413 21.3563C52.0045 21.8193 52.5494 22.0574 53.2033 22.0442L53.8844 22.0574L53.9389 22.4013C54.0751 22.3881 54.1024 22.2955 54.1433 22.2426C54.2386 22.1103 54.3476 22.0574 54.5111 22.0706L54.5792 22.15C55.4647 23.8432 56.2139 25.6158 57.0313 27.3355L57.0721 27.4678V27.4942L57.0449 27.5207L56.9087 27.5074L56.7997 27.481L56.6635 27.4678C56.4727 27.4281 56.3093 27.4413 56.1322 27.4148C55.7916 27.3884 55.451 27.3487 55.0968 27.2826C54.3476 27.19 53.5983 27.0444 52.8491 27.0048C52.5766 26.9915 52.2361 26.9915 51.9909 26.8593C51.7786 26.7315 51.5936 26.5654 51.4459 26.3698C51.2254 26.1002 50.9523 25.8754 50.6422 25.7084L49.9883 25.3512C49.348 25.0867 48.6805 24.9676 47.9858 24.9808C47.7013 25.0049 47.419 25.0491 47.1412 25.1131C46.7052 25.2189 46.2693 25.3248 45.8742 25.5364C45.1522 25.92 44.4983 26.383 43.7218 26.6608C43.0135 26.8989 42.2233 27.0841 41.4741 27.0312C41.1201 27.0293 40.7728 26.9381 40.466 26.7667C39.992 26.531 39.5634 26.2178 39.1991 25.8407L38.4635 25.0602C38.3545 24.9279 38.2864 24.7692 38.191 24.6237L38.0412 24.3591L37.8777 24.1739C38.082 24.0416 37.9458 23.8697 37.9594 23.7374C38.1774 23.5125 38.1774 23.5125 38.082 23.2082L37.9458 22.7849C38.1774 22.6659 38.3545 22.4675 38.6678 22.4807C38.5043 22.2426 38.3136 22.4145 38.1229 22.3881V22.15C38.1229 22.0706 38.0957 22.0045 38.082 21.9251C38.082 22.3219 38.0275 22.4542 37.7006 22.5336C37.6774 22.4897 37.6547 22.4456 37.6325 22.4013C37.4963 22.5204 37.4963 22.5071 37.3328 22.3616L37.4145 22.1632C37.2647 21.7399 37.2374 21.6738 37.3464 21.3298L37.2102 21.2372C37.1284 21.1711 37.0195 21.1446 36.9513 21.0653C36.8287 20.9065 36.6789 20.8404 36.5018 20.8933L36.0931 20.6023C36.1885 20.4171 36.1885 20.4171 36.1612 20.1393C36.025 20.0335 35.9024 19.9144 35.7525 19.8218C35.6766 19.7585 35.62 19.6761 35.5891 19.5837C35.5336 19.439 35.4396 19.3112 35.3166 19.2133L35.1123 19.0149C35.085 18.9884 35.085 18.9487 35.0578 18.8826C35.2621 19.0942 35.4256 19.1075 35.5891 18.9487C35.5334 18.8382 35.4357 18.7528 35.3166 18.7106C35.2213 18.6842 35.1804 18.6445 35.194 18.5651C35.0578 18.7503 34.8807 18.6709 34.69 18.6445V18.3799C34.6581 18.358 34.6263 18.336 34.5946 18.3138C34.69 18.0624 34.6627 17.9434 34.472 17.7846L33.4503 16.8851C33.3686 16.8058 33.246 16.7661 33.1506 16.7396C33.028 16.6999 32.9326 16.7396 32.8781 16.8587C32.81 16.938 32.7692 17.0306 32.7147 17.1365C32.4831 16.9513 32.1698 16.8851 32.0608 16.6206L31.7066 16.3957L31.7338 16.2898L31.4477 15.7343L31.2298 15.1654L31.0254 14.5966L31.0527 14.5702L31.2979 14.7157L31.3115 14.6892L30.8347 14.1469L30.9028 14.0146C30.7666 13.922 30.644 13.8426 30.535 13.7368C30.4397 13.6442 30.3579 13.5251 30.2762 13.4193L29.5406 12.5066C29.4452 12.3743 29.3635 12.2288 29.2409 12.1229C29.0346 11.9527 28.7996 11.8184 28.5461 11.7261C28.4099 11.6864 28.2736 11.6732 28.1919 11.5144C28.1919 11.488 28.1374 11.488 28.0966 11.4747L27.5516 11.2499C27.301 11.1471 27.0334 11.0889 26.7615 11.0779C26.5299 11.0647 26.2847 11.0911 26.0668 11.0118C26.0123 10.9853 25.9578 11.0118 25.9033 11.0118C25.6717 11.025 25.4265 11.0647 25.1813 11.0514C24.9497 11.0514 24.7726 11.0911 24.6636 11.316C24.6636 11.3425 24.6364 11.3557 24.6228 11.3689C24.432 11.3954 24.2413 11.3822 24.0778 11.4615C23.9144 11.5409 23.7781 11.5541 23.6692 11.488L23.2196 11.5673C23.1723 11.5801 23.1267 11.5978 23.0834 11.6203C22.7428 11.7525 22.4431 11.9907 22.1025 12.1097H22.1843L22.2388 12.1362C22.2388 12.2288 22.1707 12.2684 22.1025 12.2684C21.8437 12.2949 21.6257 12.4536 21.3942 12.5595L21.2988 12.5727L21.8028 12.242L21.435 12.414C21.326 12.4669 21.2307 12.5462 21.2171 12.6918C20.9719 12.7844 20.822 12.9563 20.7675 13.2209L20.6994 13.3796C20.5632 13.6706 20.5632 13.9617 20.6585 14.2527C20.7266 14.4643 20.7403 14.7025 20.8356 14.9141C20.9446 15.1787 21.0536 15.4565 21.2171 15.7078C21.2988 15.8136 21.3669 15.9459 21.435 16.065C21.4895 16.1311 21.5576 16.1708 21.6257 16.2105C21.8165 16.3428 21.9254 16.5147 21.8982 16.7661C21.871 16.9777 21.8165 17.1629 21.7347 17.3613C21.6394 17.5994 21.5304 17.8508 21.4623 18.1021C21.3805 18.3402 21.4487 18.4857 21.6666 18.618C21.7756 18.6842 21.8982 18.7106 22.0208 18.6842L22.2251 18.6577L22.3069 18.9355C22.3069 19.1075 22.375 19.253 22.5112 19.3324C22.484 19.5176 22.5248 19.6631 22.6475 19.7821C22.7837 19.9144 22.8654 20.0731 22.8382 20.2716V20.4303C22.8927 20.761 23.0698 20.9197 23.3967 20.9462L23.71 20.933C23.8871 20.933 24.0642 20.9197 24.2549 21.0123C23.9825 21.3827 23.8463 21.806 23.819 22.269L23.424 22.3484L22.6747 22.5071C22.5767 22.5356 22.4845 22.5804 22.4022 22.6394C22.3175 22.6923 22.2504 22.7679 22.2093 22.8572C22.1681 22.9465 22.1547 23.0455 22.1707 23.1421C22.1877 23.2635 22.2294 23.3804 22.2933 23.486C22.4022 23.658 22.5248 23.8432 22.6611 23.9887C22.8518 24.1871 23.0561 24.3591 23.3422 24.3988C23.71 24.4517 23.9144 24.2533 23.8599 23.83L23.8326 23.949C23.7236 24.2136 23.424 24.3459 23.1924 24.2004C22.7837 23.9623 22.5112 23.6183 22.375 23.1421C22.4345 23.0373 22.5314 22.9573 22.6475 22.9172C22.988 22.7717 23.3558 22.8511 23.71 22.7849C23.819 22.7585 23.8735 22.8511 23.8463 22.9701C23.8463 23.0495 23.8054 23.1289 23.7781 23.2082C23.7509 23.3405 23.6964 23.4464 23.7509 23.5786H23.9007C24.0233 23.8564 23.9689 24.1475 23.9416 24.412C23.9144 24.6104 23.9416 24.8089 24.0233 24.9676C24.0915 25.1396 24.1596 25.3115 24.3503 25.3777C24.541 25.4571 24.7045 25.5629 24.8271 25.7216L25.0995 26.0656L24.9633 26.2772C24.8952 26.4095 24.8407 26.555 24.8407 26.7137C24.8407 26.7667 24.8543 26.846 24.8952 26.8725C24.9497 26.9254 25.0042 26.8857 25.0723 26.8725C25.2222 26.8063 25.372 26.7402 25.5355 26.7005C25.6117 26.687 25.69 26.6895 25.7652 26.7078C25.8404 26.726 25.9107 26.7596 25.9714 26.8063C25.7943 27.0444 25.6308 27.2561 25.3992 27.4148C25.1268 27.5736 24.8543 27.6662 24.5683 27.4678C24.541 27.5736 24.5955 27.6265 24.6636 27.6529C24.7317 27.6794 24.7998 27.6926 24.8816 27.6926C25.1677 27.6926 25.4265 27.6 25.6445 27.4281L26.0531 27.018L26.1621 26.9254C26.1864 26.9926 26.1916 27.0649 26.1773 27.1347C26.1629 27.2045 26.1294 27.2693 26.0804 27.3222C25.9169 27.5207 25.7262 27.6662 25.4946 27.772L25.3856 27.8381C25.6581 27.8381 25.8488 27.6662 26.0395 27.5339C26.2439 27.4016 26.3392 27.2032 26.4073 26.9651C26.3256 26.8725 26.3256 26.7534 26.3937 26.6476C26.6117 26.6741 26.6253 26.6873 26.6253 26.9122C26.6662 27.7852 26.5981 28.6451 26.4891 29.5049L26.4482 29.6637L26.312 29.6901C26.0395 29.7166 25.7671 29.7959 25.4946 29.9018L24.146 30.3647L23.4376 30.6293C22.8927 30.841 22.3341 31.0262 21.7347 31.0791C21.4759 31.0923 21.2171 31.1055 20.9719 31.1584C20.6177 31.2114 20.2635 31.2907 19.9229 31.3701C19.4461 31.5024 18.9693 31.6611 18.4789 31.7669C17.6888 31.9257 16.8714 32.0447 16.0677 32.1903C15.7816 32.2432 15.4819 32.2696 15.1958 32.349C14.9506 32.4019 14.7054 32.4284 14.4466 32.4019H14.2286C14.1741 32.5739 14.0379 32.6268 13.888 32.6665C13.6428 32.7723 13.384 32.7855 13.1251 32.7988C13.0162 32.7988 12.9208 32.8252 12.8118 32.8384L12.7301 33.0501C12.553 33.1427 12.335 33.0501 12.1852 33.1824C12.1034 33.3808 12.2669 33.5395 12.2397 33.7115C12.4576 33.9232 12.7437 33.8438 13.0162 33.8438C12.8799 34.029 12.5802 34.1084 12.3078 34.0951C12.2713 34.0423 12.235 33.9894 12.1988 33.9364L12.1443 34.1745L11.6266 34.3861C11.4904 34.4258 11.3951 34.4787 11.3951 34.6375C11.2588 34.7169 11.0817 34.6772 11 34.8359C11.0272 34.9947 11.0817 35.1005 11.2452 35.1402C11.2997 35.1402 11.3406 35.1931 11.3951 35.2063L11.722 35.2989H11.9127L11.9808 35.4047L12.1716 35.3518L12.444 35.709L12.8391 35.7354L12.9481 35.7222C13.4112 35.5635 13.9016 35.5635 14.3921 35.5238L14.8689 35.4576C15.1004 35.4312 15.332 35.3783 15.55 35.365L16.5308 35.3783H16.8033L17.7705 35.2063C17.9067 35.1931 18.043 35.1666 18.1792 35.1798C18.438 35.1798 18.6832 35.1798 18.8739 34.9417C18.9009 34.9196 18.9342 34.9057 18.9693 34.9021C19.1634 34.8448 19.3684 34.8312 19.5687 34.8624L19.9229 34.9285C20.6585 35.0079 21.4078 35.0872 22.1434 35.2328C22.879 35.365 23.6147 35.4444 24.3503 35.4973C24.8271 35.5238 25.3039 35.5502 25.7671 35.6296C26.5299 35.7883 27.3064 35.7619 28.0693 35.6561C28.4371 35.6031 28.7232 35.418 28.8049 34.9946C28.8322 34.8491 28.9412 34.7036 29.0093 34.5581C29.091 34.3729 29.2136 34.201 29.2817 34.0158L29.922 32.4284L30.1127 32.521C30.3307 32.6532 30.5214 32.8252 30.7121 32.984C31.0254 33.2485 31.3933 33.4073 31.7883 33.4602C32.5103 33.5528 33.3004 33.394 33.9952 33.0633L34.3766 33.4337C34.69 33.7247 35.0305 33.9364 35.4392 34.0422C35.8479 34.1613 36.2566 34.201 36.6925 34.201C37.1693 34.201 37.6461 34.2406 38.1093 34.3068C38.2455 34.2936 38.3681 34.3068 38.5043 34.32C38.7495 34.3597 39.0084 34.3597 39.2672 34.3465C39.744 34.32 40.2208 34.2406 40.684 34.2142C41.5831 34.1745 42.4958 34.2803 43.3949 34.4258C44.3076 34.5846 45.2204 34.783 46.1467 34.955C46.5554 35.0211 46.9641 35.0608 47.3319 35.1931C48.013 35.1931 48.6669 35.2592 49.3344 35.2195C51.4833 35.0724 53.6419 35.1344 55.778 35.4047C57.2356 35.6032 58.6932 35.9603 60.1781 36H60.328L61.1453 35.8809L62.5894 35.6164C63.3777 35.4304 64.1379 35.1458 64.8507 34.7698C65.3003 34.5449 65.6272 34.2406 65.8452 33.7909L66.1177 33.3014C66.2539 33.0765 66.3356 32.8384 66.3356 32.5871C66.3356 32.2035 66.2675 31.8331 66.104 31.4892C65.7397 30.7673 65.2719 30.0992 64.7145 29.5049L64.5647 29.3462L64.8371 28.817C65.2867 27.8911 65.8043 27.018 66.4174 26.1978C66.9214 25.5232 67.3846 24.8221 67.8614 24.121C68.27 23.539 68.7196 22.9569 69.2236 22.4278C69.8503 21.7664 70.5859 21.2372 71.3079 20.7081L71.6757 20.4832L71.9891 20.6155L72.1798 20.3906L72.1389 20.2186L72.5203 20.007C72.6838 19.9012 72.8745 19.8086 73.038 19.6895C73.5829 19.2927 74.1551 18.9223 74.7545 18.6048L75.5855 18.0889L76.4028 17.5598L76.5935 17.4672L77.4518 17.3217C77.5744 17.4275 77.6697 17.5201 77.806 17.4143C77.9286 17.3084 78.0784 17.282 78.2146 17.2555C78.451 17.2159 78.6643 17.0935 78.8141 16.9116L78.9912 16.6999C79.1274 16.528 79.2636 16.4354 79.4952 16.5147L79.7132 16.5544C79.8494 16.5676 79.8903 16.5544 79.9584 16.4221C80.0265 16.2898 80.0129 16.2369 79.9039 16.1179V16.1179Z" fill="#414143"/>
</svg>
