<svg width="160" height="40" viewBox="0 0 160 40" fill="none" xmlns="http://www.w3.org/2000/svg">
<path d="M17.2919 29.5001H12.5217L7.15528 13.8001H7.0559L4.77019 29.5001H0L3.67702 4.9001H8.4472L13.913 20.6001L16.2981 4.9001H21.0683L17.2919 29.5001ZM28.7205 29.5001C28.6211 29.1001 28.5217 28.6001 28.5217 28.2001C28.4224 27.7001 28.4224 27.2001 28.5217 26.8001C28.0248 27.7001 27.3292 28.5001 26.6335 29.0001C25.8385 29.6001 25.0435 29.9001 24.0497 29.9001C22.4596 29.9001 21.2671 29.4001 20.472 28.4001C19.677 27.4001 19.4783 26.1001 19.677 24.4001C19.8954 22.74 20.7516 21.2322 22.0621 20.2001C23.354 19.2001 25.1429 18.8001 27.528 18.8001H29.6149L29.8137 17.3001C29.913 16.4001 29.913 15.7001 29.6149 15.2001C29.3168 14.7001 28.9193 14.5001 28.2236 14.5001C27.6273 14.5001 27.2298 14.7001 26.8323 15.1001C26.4348 15.5001 26.236 16.1001 26.1366 16.8001H21.5652V16.7001C21.764 15.1001 22.559 13.7001 23.9503 12.6001C25.3416 11.5001 27.0311 11.0001 29.118 11.0001C30.9068 11.0001 32.3975 11.6001 33.4907 12.7001C34.5839 13.8001 34.9814 15.4001 34.6832 17.4001L33.5901 24.9001C33.4907 25.8001 33.3913 26.6001 33.3913 27.4001C33.3913 28.1001 33.4907 28.9001 33.5901 29.7001L28.7205 29.5001ZM25.7391 26.3001C26.3354 26.3001 26.9317 26.1001 27.528 25.7001C28.1242 25.3001 28.5217 24.8001 28.7205 24.3001L29.118 21.5001H27.0311C26.236 21.5001 25.6398 21.8001 25.2422 22.3001C24.7453 22.8001 24.4472 23.5001 24.3478 24.2001C24.2484 24.9001 24.3478 25.4001 24.5466 25.8001C24.8447 26.1001 25.1429 26.3001 25.7391 26.3001ZM44.4224 27.0001C43.884 27.8422 43.1723 28.5584 42.3354 29.1001C41.5404 29.6001 40.646 29.8001 39.6522 29.8001C38.0621 29.8001 36.8696 29.1001 36.1739 27.8001C35.3789 26.5001 35.1801 24.4001 35.677 21.7001L37.2671 11.2001H42.0373L40.4472 21.8001C40.1491 23.5001 40.1491 24.7001 40.4472 25.2001C40.646 25.8001 41.1429 26.1001 41.8385 26.1001C42.3354 26.1001 42.8323 26.0001 43.3292 25.8001C43.8261 25.6001 44.2236 25.3001 44.5217 24.8001L46.5093 11.2001H51.2795L48.5963 29.5001H44.7205L44.4224 27.0001ZM50.9814 20.5001C51.4783 17.5001 52.2733 15.2001 53.5652 13.5001C54.8571 11.8001 56.5466 10.9001 58.4348 10.9001C59.2298 10.9001 59.9255 11.1001 60.5217 11.6001C61.118 12.0001 61.5155 12.7001 61.913 13.5001L62.6087 11.3001H66.6832L64 29.5001C63.6025 32.0001 62.6087 33.8001 61.118 35.1001C59.5279 36.4001 57.5404 37.0001 55.0559 37.0001C54.2609 37.0001 53.4658 36.9001 52.5714 36.6001C51.677 36.3001 50.882 36.0001 50.1863 35.6001L51.4783 32.0001C52.0745 32.4001 52.7702 32.6001 53.3665 32.8001C53.9627 33.0001 54.7578 33.1001 55.5528 33.1001C56.5466 33.1001 57.3416 32.8001 58.0373 32.2001C58.6335 31.6001 59.0311 30.7001 59.2298 29.5001L59.4286 28.1001C58.9317 28.7001 58.3354 29.2001 57.6398 29.5001C57.0435 29.8001 56.3478 30.0001 55.5528 30.0001C53.6646 30.0001 52.3727 29.2001 51.4783 27.5001C50.5839 25.8001 50.3851 23.7001 50.7826 21.0001L50.9814 20.5001ZM55.7516 20.8001C55.4534 22.5001 55.4534 23.9001 55.7516 24.8001C56.0497 25.7001 56.646 26.2001 57.5404 26.2001C58.0373 26.2001 58.5342 26.1001 58.9317 25.8001C59.3292 25.6001 59.7267 25.2001 60.0248 24.8001L61.3168 16.2001C61.118 15.7001 60.9193 15.3001 60.5217 15.1001C60.1242 14.8001 59.7267 14.7001 59.2298 14.7001C58.3354 14.7001 57.6398 15.2001 57.0435 16.3001C56.4472 17.4001 56.0497 18.8001 55.7516 20.5001V20.8001ZM73.0435 13.3001C73.6398 12.5001 74.3354 11.9001 75.0311 11.5001C75.8261 11.1001 76.5217 10.9001 77.4161 10.9001C79.0062 10.9001 80.1988 11.6001 80.8944 12.8001C81.6894 14.1001 81.8882 16.1001 81.4907 18.7001L79.9006 29.5001H75.1304L76.7205 18.7001C76.9193 17.1001 76.9193 16.1001 76.7205 15.5001C76.5217 14.9001 76.0248 14.6001 75.3292 14.6001C74.8323 14.6001 74.3354 14.7001 73.8385 15.0001C73.441 15.2001 73.0435 15.6001 72.646 16.0001L70.6584 29.5001H65.9876L69.8634 3.1001H74.5342L73.0435 13.3001ZM90.8323 6.7001L90.1366 11.2001H92.6211L92.1242 14.6001H89.6398L88.2484 23.9001C88.1491 24.7001 88.1491 25.3001 88.3478 25.6001C88.5466 25.9001 88.8447 26.1001 89.2422 26.1001H89.8385C90.0373 26.1001 90.236 26.0001 90.4348 26.0001L90.236 29.5001C89.7391 29.7001 89.3416 29.8001 88.9441 29.8001C88.5466 29.9001 88.0497 29.9001 87.5528 29.9001C86.0621 29.9001 84.9689 29.4001 84.2733 28.5001C83.5776 27.5001 83.3789 26.1001 83.677 24.0001L85.0683 14.7001H82.882L83.3789 11.3001H85.5652L86.2609 6.8001H90.8323V6.7001ZM98.2857 22.1001L102.758 11.2001H107.826L98.4845 32.2001C97.7888 33.5001 97.0932 34.6001 96.0994 35.5001C95.205 36.4001 93.913 36.8001 92.323 36.8001C91.9255 36.8001 91.6273 36.8001 91.3292 36.7001C91.0311 36.6001 90.6335 36.5001 90.1366 36.4001L91.2298 32.9001C91.3292 32.9001 91.5279 32.9001 91.6273 33.0001H91.9255C92.6211 33.0001 93.118 32.8001 93.6149 32.4001C94.0124 32.0001 94.4099 31.5001 94.7081 30.9001L95.4037 29.5001L92.6211 11.1001H97.6894L98.2857 22.1001Z" fill="#F2655E"/>
<path d="M105.341 20.6002C105.739 17.6002 106.633 15.2002 108.025 13.5002C109.317 11.8002 111.006 10.9002 112.894 10.9002C113.789 10.9002 114.484 11.1002 115.081 11.5002C115.677 11.9002 116.174 12.5002 116.571 13.3002L118.062 3.2002H121.441L117.466 29.6002H114.683V27.4002C114.087 28.2002 113.391 28.9002 112.596 29.3002C111.801 29.7002 110.907 29.9002 110.012 29.9002C108.223 29.9002 106.832 29.1002 105.938 27.4002C105.043 25.8002 104.845 23.6002 105.242 20.9002L105.341 20.6002ZM108.72 20.9002C108.422 22.9002 108.422 24.4002 108.919 25.5002C109.317 26.6002 110.112 27.1002 111.404 27.1002C112.099 27.1002 112.795 26.9002 113.391 26.5002C113.987 26.1002 114.484 25.5002 114.981 24.7002L116.273 15.9002C116.074 15.1002 115.677 14.5002 115.279 14.1002C114.782 13.7002 114.186 13.4002 113.491 13.4002C112.298 13.4002 111.404 14.1002 110.509 15.4002C109.714 16.7002 109.118 18.4002 108.82 20.5002L108.72 20.9002ZM129.888 29.5002C129.789 29.0002 129.789 28.5002 129.789 28.0002V26.7002C129.192 27.6002 128.397 28.3002 127.503 28.9002C126.609 29.5002 125.714 29.8002 124.72 29.8002C123.13 29.8002 122.037 29.3002 121.242 28.3002C120.447 27.3002 120.248 26.0002 120.447 24.3002C120.745 22.5002 121.54 21.2002 122.832 20.2002C124.124 19.2002 125.913 18.8002 128.099 18.8002H130.882L131.18 16.9002C131.379 15.7002 131.279 14.9002 130.882 14.3002C130.484 13.7002 129.789 13.4002 128.894 13.4002C128.099 13.4002 127.404 13.7002 126.807 14.2002C126.211 14.7002 125.913 15.4002 125.714 16.3002H122.435V16.2002C122.534 14.7002 123.329 13.5002 124.621 12.4002C125.913 11.3002 127.503 10.8002 129.391 10.8002C131.18 10.8002 132.472 11.3002 133.466 12.4002C134.459 13.5002 134.857 15.0002 134.559 16.9002L133.267 25.4002C133.024 26.6862 132.991 28.0033 133.168 29.3002L129.888 29.5002ZM125.814 27.2002C126.708 27.2002 127.602 26.9002 128.397 26.3002C129.192 25.7002 129.789 25.0002 130.186 24.2002L130.683 21.0002H127.801C126.807 21.0002 125.913 21.3002 125.217 22.0002C124.522 22.7002 124.025 23.5002 123.925 24.4002C123.826 25.3002 123.925 26.0002 124.223 26.5002C124.522 27.0002 125.118 27.2002 125.814 27.2002ZM143.304 6.7002L142.609 11.2002H145.491L145.093 13.7002H142.211L140.621 24.6002C140.422 25.6002 140.522 26.3002 140.72 26.7002C140.919 27.1002 141.317 27.3002 141.814 27.3002C142.012 27.3002 142.211 27.3002 142.41 27.2002C142.609 27.2002 142.807 27.1002 143.006 27.0002V29.4002C142.708 29.6002 142.31 29.7002 141.913 29.8002C141.515 29.9002 141.118 29.9002 140.621 29.9002C139.329 29.9002 138.435 29.5002 137.739 28.6002C137.143 27.7002 136.944 26.4002 137.242 24.6002L138.832 13.7002H136.447L136.845 11.2002H139.23L139.925 6.7002H143.304ZM151.255 29.8002C149.068 29.8002 147.478 29.0002 146.385 27.3002C145.292 25.6002 144.994 23.5002 145.391 20.8002L145.491 20.0002C145.888 17.2002 146.882 15.0002 148.373 13.3002C149.863 11.6002 151.652 10.8002 153.739 10.8002C155.727 10.8002 157.217 11.5002 158.112 13.0002C159.006 14.5002 159.304 16.5002 158.907 18.9002L158.609 20.8002H148.77C148.472 22.7002 148.571 24.3002 149.068 25.4002C149.565 26.5002 150.459 27.1002 151.851 27.1002C152.745 27.1002 153.64 27.0002 154.335 26.6002C155.13 26.3002 155.826 25.9002 156.522 25.3002L157.317 27.4002C156.621 28.0002 155.727 28.6002 154.733 29.0002C153.64 29.6002 152.447 29.8002 151.255 29.8002ZM153.341 13.5002C152.348 13.5002 151.553 14.0002 150.857 14.9002C150.161 15.8002 149.565 17.0002 149.267 18.4002V18.5002H155.528L155.627 18.1002C155.826 16.7002 155.727 15.6002 155.428 14.7002C155.031 13.9002 154.335 13.5002 153.341 13.5002Z" fill="black"/>
</svg>
