<?xml version="1.0" encoding="utf-8"?>
<!-- Generator: Adobe Illustrator 26.4.1, SVG Export Plug-In . SVG Version: 6.00 Build 0)  -->
<svg version="1.1" id="Layer_1" xmlns="http://www.w3.org/2000/svg" xmlns:xlink="http://www.w3.org/1999/xlink" x="0px" y="0px"
	 viewBox="0 0 22 20" style="enable-background:new 0 0 22 20;" xml:space="preserve">
<style type="text/css">
	.st0{fill:#960F5B;}
</style>
<path class="st0" d="M10.3,0.4L7.5,6.1L6.9,6.2L2.4,6.9L1.2,7.1C0.5,7.2,0.3,7.9,0.7,8.4l4.6,4.5l-0.1,0.6l-0.8,4.5l-0.2,1.2
	C4.1,19.6,4.5,20,5,20c0.1,0,0.2,0,0.4-0.1l5.7-3l5.7,3C16.8,20,16.9,20,17,20c0.4,0,0.8-0.4,0.8-0.9l-0.2-1.2l-0.8-4.5l-0.1-0.6
	l4.6-4.5c0.5-0.4,0.2-1.2-0.4-1.3l-1.3-0.2l-4.5-0.6l-0.6-0.1l-2.8-5.7C11.5,0.1,11.3,0,11,0S10.5,0.1,10.3,0.4z"/>
</svg>
